<?xml version="1.0" encoding="UTF-8"?><svg id="Layer_1" xmlns="http://www.w3.org/2000/svg" viewBox="0 0 26.33 371.75"><g id="g12972"><rect id="rect7565" x="3.82" y="346.26" width="18.67" height="14.11" fill="#fdfdfd"/><path id="path6976" d="M4.68,365.16c-.03-.05-.08-.19-.08-.23v-.03h3.39v.06c.04,.12,.04,.14,.01,.19l-.03,.04h-3.27l-.02-.04h0Z" fill="#fdfdfd"/><path id="path6978" d="M8.47,365.14c-.03-.06-.08-.2-.08-.22,0-.01,.73-.01,1.75-.01h1.75v.03c-.02,.07-.05,.15-.08,.2l-.03,.06h-3.27l-.03-.06h0Z" fill="#fdfdfd"/><path id="path6980" d="M12.18,365.28s.01-.04,.03-.08c.02-.06,.05-.16,.07-.26v-.04h.88c.83,0,.88,0,.88,.02,0,.01,0,.04,.01,.07,0,.03,.02,.1,.04,.16,.02,.06,.04,.12,.04,.12h-.98c-.54,0-.98,0-.98-.01h0Z" fill="#fdfdfd"/><path id="path6982" d="M14.52,365.14c-.03-.06-.08-.2-.08-.22,0-.01,.73-.01,1.75-.01,1.3,0,1.75,0,1.75,.01,0,.03-.05,.16-.08,.22l-.03,.06h-3.27l-.03-.06h0Z" fill="#fdfdfd"/><path id="path6984" d="M18.33,365.17c-.03-.05-.04-.08-.02-.17,.01-.05,.02-.09,.02-.09,0,0,.77-.01,1.7-.01h1.7v.03c-.02,.06-.06,.16-.08,.21l-.03,.05h-3.27l-.02-.04h0Z" fill="#fdfdfd"/><g id="g7034"><g id="g7036"><path id="path7038" d="M8.13,367.98c-.19-.48-.45-1.03-.7-1.53l-.1-.19,.04-.08c.07-.13,.23-.42,.33-.58l.04-.06h.2c.11,0,.33,0,.49,0h.29l.04,.06c.08,.14,.3,.52,.35,.62l.02,.03-.05,.1c-.28,.53-.55,1.13-.77,1.69l-.04,.09h-.06l-.06-.16h0Z" fill="#fdfdfd" stroke="rgba(0,0,0,0)" stroke-linecap="round" stroke-linejoin="round" stroke-width=".4"/><path id="path7040" d="M17.94,367.83c-.19-.48-.45-1.03-.7-1.53l-.1-.19,.04-.08c.07-.13,.23-.42,.33-.58l.04-.06h.2c.11,0,.33,0,.49,0h.29l.04,.06c.08,.14,.3,.52,.35,.62l.02,.03-.05,.1c-.28,.53-.55,1.13-.77,1.69l-.04,.09h-.06l-.06-.16h0Z" fill="#fdfdfd" stroke="rgba(0,0,0,0)" stroke-linecap="round" stroke-linejoin="round" stroke-width=".4"/></g><path id="path7042" d="M12.06,367.29c.08-.16,.23-.43,.33-.62l.19-.33-.22-.39-.22-.39h-.38c-.32,0-.38-.01-.38-.04,0-.03-.03-.04-.16-.03-.15,.01-.17,.01-.22,.1l-.05,.09,.28,.54c.15,.3,.36,.72,.46,.94,.1,.22,.19,.4,.2,.4,0,0,.08-.13,.16-.28h0Z" fill="#fdfdfd" stroke="rgba(0,0,0,0)" stroke-linecap="round" stroke-linejoin="round" stroke-width=".4"/><path id="path7044" d="M14.33,367.27c-.08-.16-.23-.43-.33-.62l-.19-.33,.22-.39,.22-.39h.38c.32,0,.38-.01,.38-.04,0-.03,.03-.04,.16-.03,.15,.01,.17,.01,.22,.1l.05,.09-.28,.54c-.15,.3-.36,.72-.46,.94-.1,.22-.19,.4-.2,.4,0,0-.08-.13-.16-.28h0Z" fill="#fdfdfd" stroke="rgba(0,0,0,0)" stroke-linecap="round" stroke-linejoin="round" stroke-width=".4"/><path id="path7046" d="M10.82,371.53s.08-.38,.09-.42c.17-2.25,.35-1.78,1.06-3.15,0-.07,.48-1.05,.75-1.52l.14-.24v-.63h.67v.64l.14,.25c.15,.27,.57,1.08,.66,1.3l.06,.13c.88,2.4,.22,.29,1.13,3.39,.02,.1,.04,.2,.04,.22,0,.03,0,.03-2.38,.03-1.31,0-2.38,0-2.38-.01h0Z" fill="#fdfdfd" stroke="rgba(0,0,0,0)" stroke-linecap="round" stroke-linejoin="round" stroke-width=".4"/></g><path id="path7060" d="M16.69,365.4h-1.02" fill="#fdfdfd" stroke="#fff" stroke-width=".4"/><path id="path7062" d="M5.79,370.72h4.91" fill="#fdfdfd" stroke="#fff" stroke-width=".4"/><path id="path7064" d="M7.73,365.4h1.02" fill="#fdfdfd" stroke="#fff" stroke-width=".4"/><path id="path7066" d="M9.19,366.23c-.14-.28-.29-.56-.44-.83" fill="#fdfdfd" stroke="#fff" stroke-width=".4"/><path id="path7068" d="M7.73,365.4c-.15,.27-.3,.55-.44,.83" fill="#fdfdfd" stroke="#fff" stroke-width=".4"/><path id="path7070" d="M11.12,365.4h.76" fill="#fdfdfd" stroke="#fff" stroke-width=".4"/><path id="path7072" d="M12.62,366.33c-.14-.29-.29-.57-.45-.85" fill="#fdfdfd" stroke="#fff" stroke-width=".4"/><path id="path7074" d="M11.12,365.4c-.08,.14-.16,.28-.23,.42" fill="#fdfdfd" stroke="#fff" stroke-width=".4"/><path id="path7076" d="M20.54,370.72h-4.91" fill="#fdfdfd" stroke="#fff" stroke-width=".4"/><path id="path7078" d="M18.59,365.4h-1.02" fill="#fdfdfd" stroke="#fff" stroke-width=".4"/><path id="path7080" d="M17.57,365.4c-.15,.27-.3,.55-.44,.83" fill="#fdfdfd" stroke="#fff" stroke-width=".4"/><path id="path7082" d="M19.03,366.23c-.14-.28-.29-.56-.44-.83" fill="#fdfdfd" stroke="#fff" stroke-width=".4"/><path id="path7084" d="M15.21,365.4h-.76" fill="#fdfdfd" stroke="#fff" stroke-width=".4"/><path id="path7086" d="M11.88,365.4c.15-.2,.23-.44,.22-.68" fill="#fdfdfd" stroke="#fff" stroke-width=".4"/><path id="path7088" d="M8.4,365.4h3.48" fill="#fdfdfd" stroke="#fff" stroke-width=".4"/><path id="path7090" d="M14.23,364.72c-.01,.25,.07,.49,.22,.68" fill="#fdfdfd" stroke="#fff" stroke-width=".4"/><path id="path7092" d="M17.92,365.4c.15-.2,.23-.44,.22-.68" fill="#fdfdfd" stroke="#fff" stroke-width=".4"/><path id="path7094" d="M12.18,365.48h1.97" fill="#fdfdfd" stroke="#fff" stroke-width=".4"/><path id="path7096" d="M11.37,365.4s.04,.05,.05,.08" fill="#fdfdfd" stroke="#fff" stroke-width=".4"/><path id="path7098" d="M14.9,365.48s.04-.05,.05-.08" fill="#fdfdfd" stroke="#fff" stroke-width=".4"/><path id="path7100" d="M11.42,365.48h3.48" fill="#fdfdfd" stroke="#fff" stroke-width=".4"/><path id="path7102" d="M14.2,365.48c-.16,.28-.31,.56-.45,.85" fill="#fdfdfd" stroke="#fff" stroke-width=".4"/><path id="path7104" d="M14.2,365.48c-.16,.28-.31,.56-.45,.85" fill="#fdfdfd" stroke="#fff" stroke-width=".4"/><path id="path7106" d="M15.47,365.78c-.07-.13-.14-.25-.21-.38" fill="#fdfdfd" stroke="#fff" stroke-width=".4"/><path id="path7110" d="M10.91,370.72c-.07,.28-.12,.55-.18,.83h4.91c-.05-.28-.11-.56-.18-.83" fill="#fdfdfd" stroke="#fff" stroke-width=".4"/><path id="path7112" d="M11.83,367.94c.25-.58,.53-1.16,.85-1.71v-.75" fill="#fdfdfd" stroke="#fff" stroke-width=".4"/><path id="path7114" d="M13.7,365.48v.75c.3,.53,.58,1.08,.82,1.65" fill="#fdfdfd" stroke="#fff" stroke-width=".4"/><path id="path7116" d="M8.24,368.54c-.36-1.09-.82-2.14-1.39-3.14h-1.02c-.94,1.65-1.6,3.45-1.95,5.32h4.91" fill="#fdfdfd" stroke="#fff" stroke-width=".4"/><path id="path7118" d="M18.08,365.1c.04,.11,.09,.21,.16,.3h3.48c.15-.2,.23-.44,.22-.68" fill="#fdfdfd" stroke="#fff" stroke-width=".4"/><path id="path7120" d="M17.53,370.72h4.91c-.35-1.87-1.01-3.66-1.95-5.32h-1.02c-.57,1-1.03,2.05-1.39,3.14" fill="#fdfdfd" stroke="#fff" stroke-width=".4"/><path id="path7122" d="M9.63,365.4c-.94,1.65-1.6,3.45-1.95,5.32h4.91c-.35-1.87-1.01-3.66-1.95-5.32h-1.02Z" fill="#fdfdfd" stroke="#fff" stroke-width=".4"/><path id="path7138" d="M22.49,310.38v50.27s-18.65,0-18.65,0V68.38H22.49l.04,241.93" fill="#fdfdfd" stroke="#fff" stroke-width=".4"/><path id="path7144" d="M22.49,354.9v8.31c-.02,.54-.19,1.06-.49,1.51H4.33c-.3-.45-.46-.97-.49-1.51v-8.31" fill="#fdfdfd" stroke="#fff" stroke-width=".4"/><path id="path7171" d="M16.69,365.4c.94,1.65,1.6,3.45,1.95,5.32h-4.91c.35-1.87,1.01-3.66,1.95-5.32" fill="#fdfdfd" stroke="#fff" stroke-width=".4"/><path id="path7173" d="M14.45,365.4h3.48" fill="#fdfdfd" stroke="#fff" stroke-width=".4"/><path id="path7175" d="M4.39,364.72c-.01,.25,.07,.49,.22,.68h3.48c.07-.09,.12-.19,.16-.3" fill="#fdfdfd" stroke="#fff" stroke-width=".4"/><path id="path7177" d="M8.19,364.72c-.01,.25,.07,.49,.22,.68" fill="#fdfdfd" stroke="#fff" stroke-width=".4"/><path id="path9116" d="M22.48,152.04l1.28,2.21v21.3l-.53,3.45v176.4l-.97,3.69v-33.5l-.5-1.62v-2.88l.47-1.76v-15.93l-.55-2.06v-4.13l.46-2.12v-110.06l-.44-2.44v-30.5l.78-.05Z" fill-rule="evenodd" stroke="#fff" stroke-linecap="round" stroke-linejoin="round" stroke-width=".4"/><path id="path7050" d="M3.84,360.33H22.49" fill="#fdfdfd" stroke="#fff" stroke-width=".4"/><path id="path7659" d="M3.84,346.33H22.49" fill="#fdfdfd" stroke="#fff" stroke-width=".4"/><g id="g8452"><rect id="rect6974" x="3.27" y="360.72" width=".48" height=".45" fill="#fdfdfd"/><path id="path7026" d="M6.19,306.1h-.06s-.06,.01-.06,.01l-.06,.02-.06,.02-.06,.03-.06,.03-.06,.04-.06,.05-.06,.05-.06,.06-.07,.07-.07,.08-.07,.08-.07,.09-.07,.1-.07,.11-.07,.12-.07,.13-.07,.14-.08,.14-.08,.15-.08,.16-.08,.16-.07,.17-.07,.17-.07,.17-.07,.17-.07,.17-.07,.17-.06,.17-.06,.17-.06,.17-.05,.17-.05,.17-.04,.17-.04,.17-.04,.17-.04,.17-.03,.15v.04s-.04,.08-.04,.08l-.03,.08-.05,.15-.05,.14-.05,.14-.04,.14-.04,.14-.04,.14-.04,.14-.04,.13-.04,.14-.03,.14-.03,.14-.03,.14-.03,.15v.08s-.03,.08-.03,.08l-.02,.08v.08s-.03,.08-.03,.08v.08s-.03,.09-.03,.09v.09s-.03,.09-.03,.09l-.02,.09v.05s0,.01,0,.01h0v.05s-.02,.45-.02,.45l-.06,1.8-.24,7.21-.48,14.43-.48,14.43-.24,7.21v.11s0,.06,0,.06h0s0,.02,0,.02v.02s.01,.05,.01,.05l.02,.09,.02,.09,.02,.09,.02,.09,.03,.09,.03,.09,.03,.09,.03,.09,.04,.09,.04,.09,.04,.09,.05,.09,.05,.09,.06,.09,.06,.09,.07,.09,.04,.04,.04,.04,.04,.04,.04,.04,.04,.04,.04,.04,.05,.04,.05,.04,.05,.04,.05,.04,.05,.04,.06,.04,.06,.04,.06,.04,.06,.04,.06,.04,.06,.04,.03,.02h.07s.01-.02,.01-.02h0s0-.02,0-.02h0s0-.03,0-.03h0s0-.03,0-.03v-.03s.02-.13,.02-.13l.03-.26,.03-.26,.03-.26,.03-.26,.03-.27,.03-.27,.03-.27,.03-.27,.03-.27,.03-.28,.06-.55,.06-.56,.06-.56,.06-.56,.12-1.13,.06-.56,.06-.56,.06-.55,.03-.28,.03-.28,.03-.27,.03-.27,.03-.27,.03-.27,.03-.26,.03-.26,.03-.26,.03-.26,.03-.26,.03-.25,.04-.25,.03-.24,.04-.24,.04-.24,.04-.23,.04-.23,.04-.23,.04-.22,.04-.22,.04-.21,.05-.14,.08-.15,.11-.16,.13-.16,.16-.15,.18-.14,.2-.11,.21-.08,.22-.04h.23l.24,.05,.24,.11,.4,1.06,.42,1.17,.42,1.17,.42,1.17,.42,1.17,.42,1.17,.42,1.17,.42,1.17,.42,1.17,.42,1.17,.42,1.17,.42,1.17,.11,.28,.02,.03,.02,.03,.02,.03,.03,.03,.03,.03,.03,.02,.03,.02,.03,.02,.03,.02,.03,.02h.03s.03,.02,.03,.02h.03s.03,.02,.03,.02h.3l.05-.03,.05-.05,.05-.07,.05-.09,.05-.11,.04-.13,.04-.14,.04-.15,.03-.16,.03-.16,.02-.16-.19-1.82-.45-3.82-.45-3.81-.45-3.82-.45-3.81-.45-3.82-.45-3.81-.45-3.82-.45-3.81-.45-3.82-.45-3.81-.45-3.82-.29-2.58v-.25s0-.25,0-.25v-.25s0-.25,0-.25v-.25s0-.25,0-.25v-.25s0-.25,0-.25v-.25s0-.25,0-.25v-.25s-.01-.31-.01-.31l-.04-.49-.04-.44-.04-.4-.04-.36-.04-.32-.04-.29-.04-.26-.04-.23-.04-.21-.04-.19-.04-.17-.04-.16-.04-.14-.05-.13-.04-.12-.05-.11-.05-.1-.05-.09-.05-.08-.05-.07-.05-.07-.05-.06-.05-.05-.05-.04-.05-.04-.05-.03-.05-.03-.06-.02h-.06s-.06-.02-.06-.02h-.06Z" fill="#fdfdfd"/><path id="path8389" d="M3.12,361.55l.69-6.28,.17-1.97,.61-4.62,.09-.64,.33-.53,.42-.38,.42-.19,.44-.05,.3,.05,.27,.2,5.09,14.12,.3,.27,.34,.06-.02-.23-7.69-20.67-.38-.42-.41-.27-.42,.11-.17,.52-1.61,19.91,.39,.5,.39,.36,.44,.16Z" fill="#fdfdfd" fill-rule="evenodd"/><path id="path7126" d="M7.67,310.96l-1.23-1.31" fill="#fdfdfd" stroke="#fff" stroke-width=".4"/><path id="path7128" d="M6.44,309.65h-2.43" fill="#fdfdfd" stroke="#fff" stroke-width=".4"/><path id="path7130" d="M3.92,340.02l.17-24.12" fill="#fdfdfd" stroke="#fff" stroke-width=".4"/><path id="path7132" d="M4.09,315.9l2.16-2.93" fill="#fdfdfd" stroke="#fff" stroke-width=".4"/><path id="path7134" d="M4.09,315.9l-1.03-2.67" fill="#fdfdfd" stroke="#fff" stroke-width=".4"/><path id="path7136" d="M6.25,312.97l.18-3.32" fill="#fdfdfd" stroke="#fff" stroke-linecap="round" stroke-width=".4"/><path id="path7140" d="M3.23,360.64h.61" fill="#fdfdfd" stroke="#fff" stroke-width=".4"/><path id="path7142" d="M3.15,361.3h.69" fill="#fdfdfd" stroke="#fff" stroke-width=".4"/><path id="path7150" d="M1.91,360.55l.12-1.5,.12-1.5,.12-1.5,.12-1.5,.12-1.5,.12-1.5,.12-1.5,.12-1.5,.12-1.5,.12-1.5,.12-1.5,.12-1.5,.12-1.5,.05-.48,.03-.12,.04-.1,.04-.09,.05-.07,.05-.06,.06-.04,.06-.03,.06-.02h.06s.07-.01,.07-.01h.07s.07,.03,.07,.03l.06,.03,.06,.03,.06,.04,.06,.04,.06,.05,.06,.05,.06,.05,.05,.06,.05,.06,.05,.06,.05,.06,.05,.06,.04,.06,.18,.44,.58,1.57,.58,1.57,.58,1.57,.58,1.57,.58,1.57,.58,1.57,.58,1.57,.58,1.57,.58,1.57,.58,1.57,.58,1.57,.58,1.57,.58,1.57" fill="#fdfdfd" stroke="#fff" stroke-width=".4"/><path id="path8391" d="M6.19,306.1h-.06s-.06,.01-.06,.01l-.06,.02-.06,.02-.06,.03-.06,.03-.06,.04-.06,.05-.06,.05-.06,.06-.07,.07-.07,.08-.07,.08-.07,.09-.07,.1-.07,.11-.07,.12-.07,.13-.07,.14-.08,.14-.08,.15-.08,.16-.08,.16-.07,.17-.07,.17-.07,.17-.07,.17-.07,.17-.07,.17-.06,.17-.06,.17-.06,.17-.05,.17-.05,.17-.04,.17-.04,.17-.04,.17-.04,.17-.03,.15v.04s-.04,.08-.04,.08l-.03,.08-.05,.15-.05,.14-.05,.14-.04,.14-.04,.14-.04,.14-.04,.14-.04,.13-.04,.14-.03,.14-.03,.14-.03,.14-.03,.15v.08s-.03,.08-.03,.08l-.02,.08v.08s-.03,.08-.03,.08v.08s-.03,.09-.03,.09v.09s-.03,.09-.03,.09l-.02,.09v.05s0,.01,0,.01h0v.05s-.02,.45-.02,.45l-.06,1.8-.24,7.21-.48,14.43-.48,14.43-.24,7.21v.11s0,.06,0,.06h0s0,.02,0,.02v.02s.01,.05,.01,.05l.02,.09,.02,.09,.02,.09,.02,.09,.03,.09,.03,.09,.03,.09,.03,.09,.04,.09,.04,.09,.04,.09,.05,.09,.05,.09,.06,.09,.06,.09,.07,.09,.04,.04,.04,.04,.04,.04,.04,.04,.04,.04,.04,.04,.05,.04,.05,.04,.05,.04,.05,.04,.05,.04,.06,.04,.06,.04,.06,.04,.06,.04,.06,.04,.06,.04,.03,.02h.07s.01-.02,.01-.02h0s0-.02,0-.02h0s0-.03,0-.03h0s0-.03,0-.03v-.03s.02-.13,.02-.13l.03-.26,.03-.26,.03-.26,.03-.26,.03-.27,.03-.27,.03-.27,.03-.27,.03-.27,.03-.28,.06-.55,.06-.56,.06-.56,.06-.56,.12-1.13,.06-.56,.06-.56,.06-.55,.03-.28,.03-.28,.03-.27,.03-.27,.03-.27,.03-.27,.03-.26,.03-.26,.03-.26,.03-.26,.03-.26,.03-.25,.04-.25,.03-.24,.04-.24,.04-.24,.04-.23,.04-.23,.04-.23,.04-.22,.04-.22,.04-.21,.05-.14,.08-.15,.11-.16,.13-.16,.16-.15,.18-.14,.2-.11,.21-.08,.22-.04h.23l.24,.05,.24,.11,.4,1.06,.42,1.17,.42,1.17,.42,1.17,.42,1.17,.42,1.17,.42,1.17,.42,1.17,.42,1.17,.42,1.17,.42,1.17,.42,1.17,.11,.28,.02,.03,.02,.03,.02,.03,.03,.03,.03,.03,.03,.02,.03,.02,.03,.02,.03,.02,.03,.02h.03s.03,.02,.03,.02h.03s.03,.02,.03,.02h.3l.05-.03,.05-.05,.05-.07,.05-.09,.05-.11,.04-.13,.04-.14,.04-.15,.03-.16,.03-.16,.02-.16-.19-1.82-.45-3.82-.45-3.81-.45-3.82-.45-3.81-.45-3.82-.45-3.81-.45-3.82-.45-3.81-.45-3.82-.45-3.81-.45-3.82-.29-2.58v-.25s0-.25,0-.25v-.25s0-.25,0-.25v-.25s0-.25,0-.25v-.25s0-.25,0-.25v-.25s0-.25,0-.25v-.25s-.01-.31-.01-.31l-.04-.49-.04-.44-.04-.4-.04-.36-.04-.32-.04-.29-.04-.26-.04-.23-.04-.21-.04-.19-.04-.17-.04-.16-.04-.14-.05-.13-.04-.12-.05-.11-.05-.1-.05-.09-.05-.08-.05-.07-.05-.07-.05-.06-.05-.05-.05-.04-.05-.04-.05-.03-.05-.03-.06-.02h-.06s-.06-.02-.06-.02h-.06Z" fill="#fdfdfd" stroke="#fff" stroke-width=".4"/></g><g id="g8480"><rect id="rect8454" x="22.58" y="360.72" width=".48" height=".45" fill="#fdfdfd"/><path id="path8456" d="M20.14,306.1h.06s.06,.01,.06,.01l.06,.02,.06,.02,.06,.03,.06,.03,.06,.04,.06,.05,.06,.05,.06,.06,.07,.07,.07,.08,.07,.08,.07,.09,.07,.1,.07,.11,.07,.12,.07,.13,.07,.14,.08,.14,.08,.15,.08,.16,.08,.16,.07,.17,.07,.17,.07,.17,.07,.17,.07,.17,.07,.17,.06,.17,.06,.17,.06,.17,.05,.17,.05,.17,.04,.17,.04,.17,.04,.17,.04,.17,.03,.15v.04s.04,.08,.04,.08l.03,.08,.05,.15,.05,.14,.05,.14,.04,.14,.04,.14,.04,.14,.04,.14,.04,.13,.04,.14,.03,.14,.03,.14,.03,.14,.03,.15v.08s.03,.08,.03,.08l.02,.08v.08s.03,.08,.03,.08v.08s.03,.09,.03,.09v.09s.03,.09,.03,.09l.02,.09v.05s0,.01,0,.01h0v.05s.02,.45,.02,.45l.06,1.8,.24,7.21,.48,14.43,.48,14.43,.24,7.21v.11s0,.06,0,.06h0s0,.02,0,.02v.02s-.01,.05-.01,.05l-.02,.09-.02,.09-.02,.09-.02,.09-.03,.09-.03,.09-.03,.09-.03,.09-.04,.09-.04,.09-.04,.09-.05,.09-.05,.09-.06,.09-.06,.09-.07,.09-.04,.04-.04,.04-.04,.04-.04,.04-.04,.04-.04,.04-.05,.04-.05,.04-.05,.04-.05,.04-.05,.04-.06,.04-.06,.04-.06,.04-.06,.04-.06,.04-.06,.04-.03,.02h-.07s-.01-.02-.01-.02h0s0-.02,0-.02h0s0-.03,0-.03h0s0-.03,0-.03v-.03s-.02-.13-.02-.13l-.03-.26-.03-.26-.03-.26-.03-.26-.03-.27-.03-.27-.03-.27-.03-.27-.03-.27-.03-.28-.06-.55-.06-.56-.06-.56-.06-.56-.12-1.13-.06-.56-.06-.56-.06-.55-.03-.28-.03-.28-.03-.27-.03-.27-.03-.27-.03-.27-.03-.26-.03-.26-.03-.26-.03-.26-.03-.26-.03-.25-.04-.25-.03-.24-.04-.24-.04-.24-.04-.23-.04-.23-.04-.23-.04-.22-.04-.22-.04-.21-.05-.14-.08-.15-.11-.16-.13-.16-.16-.15-.18-.14-.2-.11-.21-.08-.22-.04h-.23l-.24,.05-.24,.11-.4,1.06-.42,1.17-.42,1.17-.42,1.17-.42,1.17-.42,1.17-.42,1.17-.42,1.17-.42,1.17-.42,1.17-.42,1.17-.42,1.17-.11,.28-.02,.03-.02,.03-.02,.03-.03,.03-.03,.03-.03,.02-.03,.02-.03,.02-.03,.02-.03,.02h-.03s-.03,.02-.03,.02h-.03s-.03,.02-.03,.02h-.3l-.05-.03-.05-.05-.05-.07-.05-.09-.05-.11-.04-.13-.04-.14-.04-.15-.03-.16-.03-.16-.02-.16,.19-1.82,.45-3.82,.45-3.81,.45-3.82,.45-3.81,.45-3.82,.45-3.81,.45-3.82,.45-3.81,.45-3.82,.45-3.81,.45-3.82,.29-2.58v-.25s0-.25,0-.25v-.25s0-.25,0-.25v-.25s0-.25,0-.25v-.25s0-.25,0-.25v-.25s0-.25,0-.25v-.25s.01-.31,.01-.31l.04-.49,.04-.44,.04-.4,.04-.36,.04-.32,.04-.29,.04-.26,.04-.23,.04-.21,.04-.19,.04-.17,.04-.16,.04-.14,.05-.13,.04-.12,.05-.11,.05-.1,.05-.09,.05-.08,.05-.07,.05-.07,.05-.06,.05-.05,.05-.04,.05-.04,.05-.03,.05-.03,.06-.02h.06s.06-.02,.06-.02h.06Z" fill="#fdfdfd"/><path id="path8458" d="M23.21,361.55l-.69-6.28-.17-1.97-.61-4.62-.09-.64-.33-.53-.42-.38-.42-.19-.44-.05-.3,.05-.27,.2-5.09,14.12-.3,.27-.34,.06,.02-.23,7.69-20.67,.38-.42,.41-.27,.42,.11,.17,.52,1.61,19.91-.39,.5-.39,.36-.44,.16Z" fill="#fdfdfd" fill-rule="evenodd"/><path id="path8460" d="M18.66,310.96l1.23-1.31" fill="#fdfdfd" stroke="#fff" stroke-width=".4"/><path id="path8462" d="M19.89,309.65h2.43" fill="#fdfdfd" stroke="#fff" stroke-width=".4"/><path id="path8464" d="M22.41,340.02l-.17-24.12" fill="#fdfdfd" stroke="#fff" stroke-width=".4"/><path id="path8466" d="M22.24,315.9l-2.16-2.93" fill="#fdfdfd" stroke="#fff" stroke-width=".4"/><path id="path8468" d="M22.24,315.9l1.03-2.67" fill="#fdfdfd" stroke="#fff" stroke-width=".4"/><path id="path8470" d="M20.07,312.97l-.18-3.32" fill="#fdfdfd" stroke="#fff" stroke-linecap="round" stroke-width=".4"/><path id="path8472" d="M23.1,360.64h-.61" fill="#fdfdfd" stroke="#fff" stroke-width=".4"/><path id="path8474" d="M23.18,361.3h-.69" fill="#fdfdfd" stroke="#fff" stroke-width=".4"/><path id="path8476" d="M24.42,360.55l-.12-1.5-.12-1.5-.12-1.5-.12-1.5-.12-1.5-.12-1.5-.12-1.5-.12-1.5-.12-1.5-.12-1.5-.12-1.5-.12-1.5-.12-1.5-.05-.48-.03-.12-.04-.1-.04-.09-.05-.07-.05-.06-.06-.04-.06-.03-.06-.02h-.06s-.07-.01-.07-.01h-.07s-.07,.03-.07,.03l-.06,.03-.06,.03-.06,.04-.06,.04-.06,.05-.06,.05-.06,.05-.05,.06-.05,.06-.05,.06-.05,.06-.05,.06-.04,.06-.18,.44-.58,1.57-.58,1.57-.58,1.57-.58,1.57-.58,1.57-.58,1.57-.58,1.57-.58,1.57-.58,1.57-.58,1.57-.58,1.57-.58,1.57-.58,1.57" fill="#fdfdfd" stroke="#fff" stroke-width=".4"/><path id="path8478" d="M20.14,306.1h.06s.06,.01,.06,.01l.06,.02,.06,.02,.06,.03,.06,.03,.06,.04,.06,.05,.06,.05,.06,.06,.07,.07,.07,.08,.07,.08,.07,.09,.07,.1,.07,.11,.07,.12,.07,.13,.07,.14,.08,.14,.08,.15,.08,.16,.08,.16,.07,.17,.07,.17,.07,.17,.07,.17,.07,.17,.07,.17,.06,.17,.06,.17,.06,.17,.05,.17,.05,.17,.04,.17,.04,.17,.04,.17,.04,.17,.03,.15v.04s.04,.08,.04,.08l.03,.08,.05,.15,.05,.14,.05,.14,.04,.14,.04,.14,.04,.14,.04,.14,.04,.13,.04,.14,.03,.14,.03,.14,.03,.14,.03,.15v.08s.03,.08,.03,.08l.02,.08v.08s.03,.08,.03,.08v.08s.03,.09,.03,.09v.09s.03,.09,.03,.09l.02,.09v.05s0,.01,0,.01h0v.05s.02,.45,.02,.45l.06,1.8,.24,7.21,.48,14.43,.48,14.43,.24,7.21v.11s0,.06,0,.06h0s0,.02,0,.02v.02s-.01,.05-.01,.05l-.02,.09-.02,.09-.02,.09-.02,.09-.03,.09-.03,.09-.03,.09-.03,.09-.04,.09-.04,.09-.04,.09-.05,.09-.05,.09-.06,.09-.06,.09-.07,.09-.04,.04-.04,.04-.04,.04-.04,.04-.04,.04-.04,.04-.05,.04-.05,.04-.05,.04-.05,.04-.05,.04-.06,.04-.06,.04-.06,.04-.06,.04-.06,.04-.06,.04-.03,.02h-.07s-.01-.02-.01-.02h0s0-.02,0-.02h0s0-.03,0-.03h0s0-.03,0-.03v-.03s-.02-.13-.02-.13l-.03-.26-.03-.26-.03-.26-.03-.26-.03-.27-.03-.27-.03-.27-.03-.27-.03-.27-.03-.28-.06-.55-.06-.56-.06-.56-.06-.56-.12-1.13-.06-.56-.06-.56-.06-.55-.03-.28-.03-.28-.03-.27-.03-.27-.03-.27-.03-.27-.03-.26-.03-.26-.03-.26-.03-.26-.03-.26-.03-.25-.04-.25-.03-.24-.04-.24-.04-.24-.04-.23-.04-.23-.04-.23-.04-.22-.04-.22-.04-.21-.05-.14-.08-.15-.11-.16-.13-.16-.16-.15-.18-.14-.2-.11-.21-.08-.22-.04h-.23l-.24,.05-.24,.11-.4,1.06-.42,1.17-.42,1.17-.42,1.17-.42,1.17-.42,1.17-.42,1.17-.42,1.17-.42,1.17-.42,1.17-.42,1.17-.42,1.17-.11,.28-.02,.03-.02,.03-.02,.03-.03,.03-.03,.03-.03,.02-.03,.02-.03,.02-.03,.02-.03,.02h-.03s-.03,.02-.03,.02h-.03s-.03,.02-.03,.02h-.3l-.05-.03-.05-.05-.05-.07-.05-.09-.05-.11-.04-.13-.04-.14-.04-.15-.03-.16-.03-.16-.02-.16,.19-1.82,.45-3.82,.45-3.81,.45-3.82,.45-3.81,.45-3.82,.45-3.81,.45-3.82,.45-3.81,.45-3.82,.45-3.81,.45-3.82,.29-2.58v-.25s0-.25,0-.25v-.25s0-.25,0-.25v-.25s0-.25,0-.25v-.25s0-.25,0-.25v-.25s0-.25,0-.25v-.25s.01-.31,.01-.31l.04-.49,.04-.44,.04-.4,.04-.36,.04-.32,.04-.29,.04-.26,.04-.23,.04-.21,.04-.19,.04-.17,.04-.16,.04-.14,.05-.13,.04-.12,.05-.11,.05-.1,.05-.09,.05-.08,.05-.07,.05-.07,.05-.06,.05-.05,.05-.04,.05-.04,.05-.03,.05-.03,.06-.02h.06s.06-.02,.06-.02h.06Z" fill="#fdfdfd" stroke="#fff" stroke-width=".4"/></g><g id="g8572"><path id="path7058" d="M3.84,69.61l-.39-.71-.39-.71-.39-.71-.39-.71-.39-.71-.39-.71-.39-.71-.39-.71-.39-.71-.14-2.86V25.09s.06-.53,.06-.53l.05-.53,.05-.53,.05-.53,.06-.53,.06-.53,.06-.53,.07-.53,.07-.53,.08-.53,.08-.53,.09-.53,.1-.53,.1-.53,.11-.53,.12-.53,.12-.52,.13-.52,.14-.52,.15-.52,.15-.51,.16-.51,.17-.5,.18-.5,.19-.5,.2-.49,.21-.49,.22-.48,.23-.48,.23-.47,.24-.47,.25-.46,.26-.46,.27-.45,.28-.45,.29-.44,.3-.44,.31-.44,.32-.43,.32-.43,.33-.43,.34-.43,.35-.42,.36-.42,.37-.42,.37-.42,.38-.41,.4-.39,.41-.37,.42-.34,.44-.29,.46-.24,.49-.18,.51-.12,.54-.07h.57s.54,.06,.54,.06l.51,.12,.49,.18,.46,.24,.44,.29,.43,.34,.41,.37,.4,.39,.38,.41,.37,.42,.37,.42,.36,.42,.35,.42,.34,.43,.33,.43,.32,.43,.32,.43,.31,.44,.3,.44,.29,.44,.28,.45,.27,.45,.26,.46,.25,.46,.24,.47,.24,.47,.23,.48,.22,.48,.21,.49,.2,.49,.19,.5,.18,.5,.17,.5,.16,.51,.15,.51,.15,.52,.14,.52,.13,.52,.12,.52,.12,.53,.11,.53,.1,.53,.09,.53,.09,.53,.08,.53,.07,.53,.07,.53,.06,.53,.06,.53,.05,.53,.05,.53,.05,.53,.05,.53,.04,.53,.04,.53v2.99s.01,4.03,.01,4.03v28.21l-.14,2.86-.39,.71-.39,.71-.39,.71-.39,.71-.39,.71-.39,.71-.39,.71-.39,.71-.39,.71" fill="#fdfdfd" stroke="#fff" stroke-width=".4"/></g><g id="g5116"><g id="g4962"><path id="path4347" d="M20.52,146.38l.82,.38,.22,.9-.58,.74-1.07,.06-.61-.68,.15-.84,.44-.51,.63-.05Z" fill="#fdfdfd" fill-rule="evenodd"/><path id="path4343" d="M18.76,148.55l-.53-.07-1.3,1.59-.02,.93-.16,.77,.2,.84-.18,.93,.12,.77-.14,.69,.2,.69-.18,.82,.08,.55-.06,.82,.65,.2-.02-7.92,1.34-1.62Z" fill="#fdfdfd" fill-rule="evenodd"/><path id="path4345" d="M17.42,158.13l5.87-.03v-7.95l-1.72-2.6-.69,.97-.91,.06-.37-.35-.55-.27-.29,.66-1.35,1.53v7.98Z" fill="#fdfdfd" fill-rule="evenodd"/><path id="path4275" d="M17.46,150.17v7.87h5.79l-5.79-7.87,1.3-1.63,.38-1" fill="#fdfdfd" stroke="#fff" stroke-linecap="round" stroke-linejoin="round" stroke-width=".38"/><path id="path4277" d="M17.47,151.99l4.53,6.02" fill="#fdfdfd" stroke="#fff" stroke-linecap="round" stroke-linejoin="round" stroke-width=".38"/><path id="path4279" d="M20.8,158.02l-3.34-4.4" fill="#fdfdfd" stroke="#fff" stroke-linecap="round" stroke-linejoin="round" stroke-width=".38"/><path id="path4281" d="M19.71,157.99l-2.25-2.74" fill="#fdfdfd" stroke="#fff" stroke-linecap="round" stroke-linejoin="round" stroke-width=".38"/><path id="path4283" d="M18.51,158.04l-1.05-1.33" fill="#fdfdfd" stroke="#fff" stroke-linecap="round" stroke-linejoin="round" stroke-width=".38"/><path id="path4285" d="M23.25,158.02v-7.9l-1.14-1.73" fill="#fdfdfd" stroke="#fff" stroke-linecap="round" stroke-linejoin="round" stroke-width=".38"/><path id="path4287" d="M17.48,158.04l5.75-7.88" fill="#fdfdfd" stroke="#fff" stroke-linecap="round" stroke-linejoin="round" stroke-width=".38"/><path id="path4289" d="M23.25,151.99l-4.53,6.02" fill="#fdfdfd" stroke="#fff" stroke-linecap="round" stroke-linejoin="round" stroke-width=".38"/><path id="path4291" d="M19.88,158.02l3.34-4.4" fill="#fdfdfd" stroke="#fff" stroke-linecap="round" stroke-linejoin="round" stroke-width=".38"/><path id="path4293" d="M21.01,157.99l2.23-2.73" fill="#fdfdfd" stroke="#fff" stroke-linecap="round" stroke-linejoin="round" stroke-width=".38"/><path id="path4295" d="M19.71,157.99l-2.25-2.74" fill="#fdfdfd" stroke="#fff" stroke-linecap="round" stroke-linejoin="round" stroke-width=".38"/><path id="path4297" d="M22.18,158.04l1.05-1.33" fill="#fdfdfd" stroke="#fff" stroke-linecap="round" stroke-linejoin="round" stroke-width=".38"/><path id="path4299" d="M17.48,156.54l5.21-7.26" fill="#fdfdfd" stroke="#fff" stroke-linecap="round" stroke-linejoin="round" stroke-width=".38"/><path id="path4301" d="M17.45,155.03l4.12-5.87" fill="#fdfdfd" stroke="#fff" stroke-linecap="round" stroke-linejoin="round" stroke-width=".38"/><path id="path4303" d="M23.25,156.5l-5.13-7.13" fill="#fdfdfd" stroke="#fff" stroke-linecap="round" stroke-linejoin="round" stroke-width=".38"/><path id="path4305" d="M23.25,154.94l-3.98-5.67" fill="#fdfdfd" stroke="#fff" stroke-linecap="round" stroke-linejoin="round" stroke-width=".38"/><path id="path4307" d="M17.44,153.37l2.94-4.19,1.24-1.52" fill="#fdfdfd" stroke="#fff" stroke-linecap="round" stroke-linejoin="round" stroke-width=".38"/><path id="path4309" d="M23.27,153.37l-2.89-4.22-1.25-1.62" fill="#fdfdfd" stroke="#fff" stroke-linecap="round" stroke-linejoin="round" stroke-width=".38"/><path id="path4311" d="M17.46,151.78l1.8-2.5" fill="#fdfdfd" stroke="#fff" stroke-linecap="round" stroke-linejoin="round" stroke-width=".38"/><path id="path4313" d="M23.23,151.75l-1.66-2.58" fill="#fdfdfd" stroke="#fff" stroke-linecap="round" stroke-linejoin="round" stroke-width=".38"/><path id="path4317" d="M22.14,148.45l-.24-.02-.33,.74,.09-.78-.03-.75,.5,.8Z" fill="#fdfdfd" fill-rule="evenodd" stroke="#fff" stroke-linecap="round" stroke-linejoin="round" stroke-width=".38"/><path id="path4319" d="M18.76,148.54l.19,.02,.31,.71-.11-.88v-.84s-.4,.98-.4,.98Z" fill="#fdfdfd" fill-rule="evenodd" stroke="#fff" stroke-linecap="round" stroke-linejoin="round" stroke-width=".38"/><path id="path4321" d="M20.34,147.62v.71h-.13s-.24,.25-.24,.25l.42,.56,.52-.51-.23-.27-.13-.02v-.73s-.23,0-.23,0Z" fill="#fdfdfd" fill-rule="evenodd" stroke="#fff" stroke-linecap="round" stroke-linejoin="round" stroke-width=".38"/><path id="path4323" d="M19.95,148.62l-.74,.08" fill="#fdfdfd" stroke="#fff" stroke-linecap="round" stroke-linejoin="round" stroke-width=".38"/><path id="path4325" d="M20.94,148.62l.7,.07" fill="#fdfdfd" stroke="#fff" stroke-linecap="round" stroke-linejoin="round" stroke-width=".38"/><path id="path4327" d="M18.8,148.51l-.57-.04s-.11,.31-.23,.44-.52,.28-.52,.28c0,0,0,.27-.09,.43-.1,.16-.53,.41-.53,.41,0,0,.13,.54,.11,.82-.02,.28-.25,.82-.25,.82,0,0,.24,.56,.24,.85s-.23,.8-.23,.8c0,0,.19,.62,.19,.91s-.16,.79-.16,.79c0,0,.21,.54,.2,.81s-.24,.72-.24,.72c0,0,.2,.48,.19,.71,0,.23-.19,.61-.19,.61l.72,.21" fill="#fdfdfd" stroke="#fff" stroke-linecap="round" stroke-linejoin="round" stroke-width=".38"/><path id="path4329" d="M16.87,150.03l.54,.12" fill="#fdfdfd" stroke="#fff" stroke-linecap="round" stroke-linejoin="round" stroke-width=".38"/><path id="path4331" d="M18.11,149.4l-.07,1.55" fill="#fdfdfd" stroke="#fff" stroke-linecap="round" stroke-linejoin="round" stroke-width=".38"/><path id="path4333" d="M19.25,149.34l-.07,1.45" fill="#fdfdfd" stroke="#fff" stroke-linecap="round" stroke-linejoin="round" stroke-width=".38"/><path id="path4335" d="M21.56,149.25v1.55" fill="#fdfdfd" stroke="#fff" stroke-linecap="round" stroke-linejoin="round" stroke-width=".38"/><path id="path4337" d="M22.69,149.32v1.56" fill="#fdfdfd" stroke="#fff" stroke-linecap="round" stroke-linejoin="round" stroke-width=".38"/><path id="path4923" d="M18.87,147.61l.48-.02,.08-.56,.33-.47,.59-.17,.42-.06-.48-.36h-.73l-.5,.41-.19,.67v.56Z" fill="#fdfdfd" fill-rule="evenodd"/><path id="path4341" d="M20.99,146.44s-.49-.37-.65-.42c-.2-.06-.41-.09-.61-.07-.18,.02-.37,.08-.51,.2-.13,.11-.2,.28-.26,.44-.07,.18-.08,.38-.1,.58-.02,.18-.02,.55-.02,.55l.47,.42" fill="#fdfdfd" stroke="#fff" stroke-linecap="round" stroke-linejoin="round" stroke-width=".38"/><path id="path4339" d="M19.34,147.53s.01-.35,.08-.51c.09-.21,.23-.42,.43-.53,.16-.09,.36-.08,.55-.09,.18,0,.38-.02,.55,.04,.16,.06,.32,.17,.43,.31,.07,.1,.09,.23,.12,.35,.04,.18,.08,.55,.08,.55" fill="#fdfdfd" stroke="#fff" stroke-linecap="round" stroke-linejoin="round" stroke-width=".38"/></g><g id="g5038"><path id="path4964" d="M5.79,146.38l-.82,.38-.22,.9,.58,.74,1.07,.06,.61-.68-.15-.84-.44-.51-.63-.05Z" fill="#fdfdfd" fill-rule="evenodd"/><path id="path4966" d="M7.55,148.55l.53-.07,1.3,1.59,.02,.93,.16,.77-.2,.84,.18,.93-.12,.77,.14,.69-.2,.69,.18,.82-.08,.55,.06,.82-.65,.2,.02-7.92-1.34-1.62Z" fill="#fdfdfd" fill-rule="evenodd"/><path id="path4968" d="M8.88,158.13l-5.87-.03v-7.95l1.72-2.6,.69,.97,.91,.06,.37-.35,.55-.27,.29,.66,1.35,1.53v7.98Z" fill="#fdfdfd" fill-rule="evenodd"/><path id="path4970" d="M8.84,150.17v7.87H3.05l5.79-7.87-1.3-1.63-.38-1" fill="#fdfdfd" stroke="#fff" stroke-linecap="round" stroke-linejoin="round" stroke-width=".38"/><path id="path4972" d="M8.84,151.99l-4.53,6.02" fill="#fdfdfd" stroke="#fff" stroke-linecap="round" stroke-linejoin="round" stroke-width=".38"/><path id="path4974" d="M5.5,158.02l3.34-4.4" fill="#fdfdfd" stroke="#fff" stroke-linecap="round" stroke-linejoin="round" stroke-width=".38"/><path id="path4976" d="M6.6,157.99l2.25-2.74" fill="#fdfdfd" stroke="#fff" stroke-linecap="round" stroke-linejoin="round" stroke-width=".38"/><path id="path4978" d="M7.79,158.04l1.05-1.33" fill="#fdfdfd" stroke="#fff" stroke-linecap="round" stroke-linejoin="round" stroke-width=".38"/><path id="path4980" d="M3.05,158.02v-7.9l1.14-1.73" fill="#fdfdfd" stroke="#fff" stroke-linecap="round" stroke-linejoin="round" stroke-width=".38"/><path id="path4982" d="M8.83,158.04l-5.75-7.88" fill="#fdfdfd" stroke="#fff" stroke-linecap="round" stroke-linejoin="round" stroke-width=".38"/><path id="path4984" d="M3.05,151.99l4.53,6.02" fill="#fdfdfd" stroke="#fff" stroke-linecap="round" stroke-linejoin="round" stroke-width=".38"/><path id="path4986" d="M6.43,158.02l-3.34-4.4" fill="#fdfdfd" stroke="#fff" stroke-linecap="round" stroke-linejoin="round" stroke-width=".38"/><path id="path4988" d="M5.29,157.99l-2.23-2.73" fill="#fdfdfd" stroke="#fff" stroke-linecap="round" stroke-linejoin="round" stroke-width=".38"/><path id="path4990" d="M6.6,157.99l2.25-2.74" fill="#fdfdfd" stroke="#fff" stroke-linecap="round" stroke-linejoin="round" stroke-width=".38"/><path id="path4992" d="M4.12,158.04l-1.05-1.33" fill="#fdfdfd" stroke="#fff" stroke-linecap="round" stroke-linejoin="round" stroke-width=".38"/><path id="path4994" d="M8.83,156.54l-5.21-7.26" fill="#fdfdfd" stroke="#fff" stroke-linecap="round" stroke-linejoin="round" stroke-width=".38"/><path id="path4996" d="M8.86,155.03l-4.12-5.87" fill="#fdfdfd" stroke="#fff" stroke-linecap="round" stroke-linejoin="round" stroke-width=".38"/><path id="path4998" d="M3.06,156.5l5.13-7.13" fill="#fdfdfd" stroke="#fff" stroke-linecap="round" stroke-linejoin="round" stroke-width=".38"/><path id="path5000" d="M3.06,154.94l3.98-5.67" fill="#fdfdfd" stroke="#fff" stroke-linecap="round" stroke-linejoin="round" stroke-width=".38"/><path id="path5002" d="M8.86,153.37l-2.94-4.19-1.24-1.52" fill="#fdfdfd" stroke="#fff" stroke-linecap="round" stroke-linejoin="round" stroke-width=".38"/><path id="path5004" d="M3.03,153.37l2.89-4.22,1.25-1.62" fill="#fdfdfd" stroke="#fff" stroke-linecap="round" stroke-linejoin="round" stroke-width=".38"/><path id="path5006" d="M8.84,151.78l-1.8-2.5" fill="#fdfdfd" stroke="#fff" stroke-linecap="round" stroke-linejoin="round" stroke-width=".38"/><path id="path5008" d="M3.08,151.75l1.66-2.58" fill="#fdfdfd" stroke="#fff" stroke-linecap="round" stroke-linejoin="round" stroke-width=".38"/><path id="path5010" d="M4.16,148.45l.24-.02,.33,.74-.09-.78,.03-.75-.5,.8Z" fill="#fdfdfd" fill-rule="evenodd" stroke="#fff" stroke-linecap="round" stroke-linejoin="round" stroke-width=".38"/><path id="path5012" d="M7.55,148.54l-.19,.02-.31,.71,.11-.88v-.84s.4,.98,.4,.98Z" fill="#fdfdfd" fill-rule="evenodd" stroke="#fff" stroke-linecap="round" stroke-linejoin="round" stroke-width=".38"/><path id="path5014" d="M5.96,147.62v.71h.13s.24,.25,.24,.25l-.42,.56-.52-.51,.23-.27,.13-.02v-.73s.23,0,.23,0Z" fill="#fdfdfd" fill-rule="evenodd" stroke="#fff" stroke-linecap="round" stroke-linejoin="round" stroke-width=".38"/><path id="path5016" d="M6.35,148.62l.74,.08" fill="#fdfdfd" stroke="#fff" stroke-linecap="round" stroke-linejoin="round" stroke-width=".38"/><path id="path5018" d="M5.37,148.62l-.7,.07" fill="#fdfdfd" stroke="#fff" stroke-linecap="round" stroke-linejoin="round" stroke-width=".38"/><path id="path5020" d="M7.51,148.51l.57-.04s.11,.31,.23,.44,.52,.28,.52,.28c0,0,0,.27,.09,.43,.1,.16,.53,.41,.53,.41,0,0-.13,.54-.11,.82,.02,.28,.25,.82,.25,.82,0,0-.24,.56-.24,.85s.23,.8,.23,.8c0,0-.19,.62-.19,.91s.16,.79,.16,.79c0,0-.21,.54-.2,.81s.24,.72,.24,.72c0,0-.2,.48-.19,.71,0,.23,.19,.61,.19,.61l-.72,.21" fill="#fdfdfd" stroke="#fff" stroke-linecap="round" stroke-linejoin="round" stroke-width=".38"/><path id="path5022" d="M9.43,150.03l-.54,.12" fill="#fdfdfd" stroke="#fff" stroke-linecap="round" stroke-linejoin="round" stroke-width=".38"/><path id="path5024" d="M8.2,149.4l.07,1.55" fill="#fdfdfd" stroke="#fff" stroke-linecap="round" stroke-linejoin="round" stroke-width=".38"/><path id="path5026" d="M7.05,149.34l.07,1.45" fill="#fdfdfd" stroke="#fff" stroke-linecap="round" stroke-linejoin="round" stroke-width=".38"/><path id="path5028" d="M4.75,149.25v1.55" fill="#fdfdfd" stroke="#fff" stroke-linecap="round" stroke-linejoin="round" stroke-width=".38"/><path id="path5030" d="M3.62,149.32v1.56" fill="#fdfdfd" stroke="#fff" stroke-linecap="round" stroke-linejoin="round" stroke-width=".38"/><path id="path5032" d="M7.44,147.61l-.48-.02-.08-.56-.33-.47-.59-.17-.42-.06,.48-.36h.73l.5,.41,.19,.67v.56Z" fill="#fdfdfd" fill-rule="evenodd"/><path id="path5034" d="M5.32,146.44s.49-.37,.65-.42c.2-.06,.41-.09,.61-.07,.18,.02,.37,.08,.51,.2,.13,.11,.2,.28,.26,.44,.07,.18,.08,.38,.1,.58,.02,.18,.02,.55,.02,.55l-.47,.42" fill="#fdfdfd" stroke="#fff" stroke-linecap="round" stroke-linejoin="round" stroke-width=".38"/><path id="path5036" d="M6.96,147.53s-.01-.35-.08-.51c-.09-.21-.23-.42-.43-.53-.16-.09-.36-.08-.55-.09-.18,0-.38-.02-.55,.04-.16,.06-.32,.17-.43,.31-.07,.1-.09,.23-.12,.35-.04,.18-.08,.55-.08,.55" fill="#fdfdfd" stroke="#fff" stroke-linecap="round" stroke-linejoin="round" stroke-width=".38"/></g></g><path id="path4668-8" d="M3.85,360.28l18.57,.03v3.27s-.69,1.75-.69,1.75l-17.17-.05-.7-1.75v-3.25Z"/></g><polygon points="3.37 361.3 22.83 361.3 22.82 359.81 3.37 359.81 3.37 361.3" fill="#fdfdfd"/></svg>