<?xml version="1.0" encoding="UTF-8"?><svg id="svg2" xmlns="http://www.w3.org/2000/svg" viewBox="0 0 26.58 343.92"><polygon points="3.99 332.45 22.56 332.45 22.56 40.55 3.98 40.55 3.99 332.45" fill="#fff" stroke="#fff" stroke-width=".25"/><g id="g21"><g id="g5506"><g id="g9628"><g id="g12905"><path id="path10418" d="M4.82,337.34c-.03-.05-.08-.19-.08-.23v-.03h3.39v.06c.04,.12,.04,.14,.01,.19l-.03,.04h-3.27l-.02-.04h0Z" fill="#fff"/><path id="path10420" d="M8.61,337.32c-.03-.06-.08-.2-.08-.22,0-.01,.73-.01,1.75-.01h1.75v.03c-.02,.07-.05,.15-.08,.2l-.03,.06h-3.27l-.03-.06h0Z" fill="#fff"/><path id="path10422" d="M12.32,337.45s.01-.04,.03-.08c.02-.06,.05-.16,.07-.26v-.04h.88c.83,0,.88,0,.88,.02,0,.01,0,.04,.01,.07,0,.03,.02,.1,.04,.16,.02,.06,.04,.12,.04,.12h-.98c-.54,0-.98,0-.98-.01h0Z" fill="#fff"/><path id="path10424" d="M14.65,337.32c-.03-.06-.08-.2-.08-.22,0-.01,.73-.01,1.75-.01,1.3,0,1.75,0,1.75,.01,0,.03-.05,.16-.08,.22l-.03,.06h-3.27l-.03-.06h0Z" fill="#fff"/><path id="path10426" d="M18.46,337.34c-.03-.05-.04-.08-.02-.17,.01-.05,.02-.09,.02-.09,0,0,.77-.01,1.7-.01h1.7v.03c-.02,.06-.06,.16-.08,.21l-.03,.05h-3.27l-.02-.04h0Z" fill="#fff"/><g id="g10442"><g id="g10434"><path id="path10430" d="M8.27,340.15c-.19-.48-.45-1.03-.7-1.53l-.1-.19,.04-.08c.07-.13,.23-.42,.33-.58l.04-.06h.2c.11,0,.33,0,.49,0h.29l.04,.06c.08,.14,.3,.52,.35,.62l.02,.03-.05,.1c-.28,.53-.55,1.13-.77,1.69l-.04,.09h-.06l-.06-.16h0Z" fill="#fff" stroke="rgba(0,0,0,0)" stroke-linecap="round" stroke-linejoin="round" stroke-width=".4"/><path id="path10432" d="M18.07,340c-.19-.48-.45-1.03-.7-1.53l-.1-.19,.04-.08c.07-.13,.23-.42,.33-.58l.04-.06h.2c.11,0,.33,0,.49,0h.29l.04,.06c.08,.14,.3,.52,.35,.62l.02,.03-.05,.1c-.28,.53-.55,1.13-.77,1.69l-.04,.09h-.06l-.06-.16h0Z" fill="#fff" stroke="rgba(0,0,0,0)" stroke-linecap="round" stroke-linejoin="round" stroke-width=".4"/></g><path id="path10436" d="M12.2,339.46c.08-.16,.23-.43,.33-.62l.19-.33-.22-.39-.22-.39h-.38c-.32,0-.38-.01-.38-.04,0-.03-.03-.04-.16-.03-.15,.01-.17,.01-.22,.1l-.05,.09,.28,.54c.15,.3,.36,.72,.46,.94,.1,.22,.19,.4,.2,.4,0,0,.08-.13,.16-.28h0Z" fill="#fff" stroke="rgba(0,0,0,0)" stroke-linecap="round" stroke-linejoin="round" stroke-width=".4"/><path id="path10438" d="M14.46,339.44c-.08-.16-.23-.43-.33-.62l-.19-.33,.22-.39,.22-.39h.38c.32,0,.38-.01,.38-.04,0-.03,.03-.04,.16-.03,.15,.01,.17,.01,.22,.1l.05,.09-.28,.54c-.15,.3-.36,.72-.46,.94-.1,.22-.19,.4-.2,.4,0,0-.08-.13-.16-.28h0Z" fill="#fff" stroke="rgba(0,0,0,0)" stroke-linecap="round" stroke-linejoin="round" stroke-width=".4"/><path id="path10440" d="M10.95,343.71s.08-.38,.09-.42c.17-2.25,.35-1.78,1.06-3.15,0-.07,.48-1.05,.75-1.52l.14-.24v-.63h.67v.64l.14,.25c.15,.27,.57,1.08,.66,1.3l.06,.13c.88,2.4,.22,.29,1.13,3.39,.02,.1,.04,.2,.04,.22,0,.03,0,.03-2.38,.03-1.31,0-2.38,0-2.38-.01h0Z" fill="#fff" stroke="rgba(0,0,0,0)" stroke-linecap="round" stroke-linejoin="round" stroke-width=".4"/></g><path id="path10446" d="M16.83,337.57h-1.02" fill="#fff" stroke="#fff" stroke-width=".4"/><path id="path10448" d="M5.92,342.89h4.91" fill="#fff" stroke="#fff" stroke-width=".4"/><path id="path10450" d="M7.87,337.57h1.02" fill="#fff" stroke="#fff" stroke-width=".4"/><path id="path10452" d="M9.33,338.4c-.14-.28-.29-.56-.44-.83" fill="#fff" stroke="#fff" stroke-width=".4"/><path id="path10454" d="M7.87,337.57c-.15,.27-.3,.55-.44,.83" fill="#fff" stroke="#fff" stroke-width=".4"/><path id="path10456" d="M11.25,337.57h.76" fill="#fff" stroke="#fff" stroke-width=".4"/><path id="path10458" d="M12.76,338.5c-.14-.29-.29-.57-.45-.85" fill="#fff" stroke="#fff" stroke-width=".4"/><path id="path10460" d="M11.25,337.57c-.08,.14-.16,.28-.23,.42" fill="#fff" stroke="#fff" stroke-width=".4"/><path id="path10462" d="M20.68,342.89h-4.91" fill="#fff" stroke="#fff" stroke-width=".4"/><path id="path10464" d="M18.73,337.57h-1.02" fill="#fff" stroke="#fff" stroke-width=".4"/><path id="path10466" d="M17.71,337.57c-.15,.27-.3,.55-.44,.83" fill="#fff" stroke="#fff" stroke-width=".4"/><path id="path10468" d="M19.17,338.4c-.14-.28-.29-.56-.44-.83" fill="#fff" stroke="#fff" stroke-width=".4"/><path id="path10470" d="M15.35,337.57h-.76" fill="#fff" stroke="#fff" stroke-width=".4"/><path id="path10472" d="M12.02,337.57c.15-.2,.23-.44,.22-.68" fill="#fff" stroke="#fff" stroke-width=".4"/><path id="path10474" d="M8.54,337.57h3.48" fill="#fff" stroke="#fff" stroke-width=".4"/><path id="path10476" d="M14.37,336.89c-.01,.25,.07,.49,.22,.68" fill="#fff" stroke="#fff" stroke-width=".4"/><path id="path10478" d="M18.06,337.57c.15-.2,.23-.44,.22-.68" fill="#fff" stroke="#fff" stroke-width=".4"/><path id="path10480" d="M12.31,337.65h1.97" fill="#fff" stroke="#fff" stroke-width=".4"/><path id="path10482" d="M11.51,337.57s.04,.05,.05,.08" fill="#fff" stroke="#fff" stroke-width=".4"/><path id="path10484" d="M15.04,337.65s.04-.05,.05-.08" fill="#fff" stroke="#fff" stroke-width=".4"/><path id="path10486" d="M11.56,337.65h3.48" fill="#fff" stroke="#fff" stroke-width=".4"/><path id="path10488" d="M14.34,337.65c-.16,.28-.31,.56-.45,.85" fill="#fff" stroke="#fff" stroke-width=".4"/><path id="path10490" d="M14.34,337.65c-.16,.28-.31,.56-.45,.85" fill="#fff" stroke="#fff" stroke-width=".4"/><path id="path10492" d="M15.61,337.95c-.07-.13-.14-.25-.21-.38" fill="#fff" stroke="#fff" stroke-width=".4"/><path id="path10494" d="M22.62,40.55v242" fill="#fff" stroke="#fff" stroke-width=".4"/><path id="path10496" d="M11.05,342.89c-.07,.28-.12,.55-.18,.83h4.91c-.05-.28-.11-.56-.18-.83" fill="#fff" stroke="#fff" stroke-width=".4"/><path id="path10498" d="M11.97,340.11c.25-.58,.53-1.16,.85-1.71v-.75" fill="#fff" stroke="#fff" stroke-width=".4"/><path id="path10500" d="M13.83,337.65v.75c.3,.53,.58,1.08,.82,1.65" fill="#fff" stroke="#fff" stroke-width=".4"/><path id="path10502" d="M8.38,340.72c-.36-1.09-.82-2.14-1.39-3.14h-1.02c-.94,1.65-1.6,3.45-1.95,5.32h4.91" fill="#fff" stroke="#fff" stroke-width=".4"/><path id="path10504" d="M18.22,337.28c.04,.11,.09,.21,.16,.3h3.48c.15-.2,.23-.44,.22-.68" fill="#fff" stroke="#fff" stroke-width=".4"/><path id="path10506" d="M17.66,342.89h4.91c-.35-1.87-1.01-3.66-1.95-5.32h-1.02c-.57,1-1.03,2.05-1.39,3.14" fill="#fff" stroke="#fff" stroke-width=".4"/><path id="path10508" d="M9.77,337.57c-.94,1.65-1.6,3.45-1.95,5.32h4.91c-.35-1.87-1.01-3.66-1.95-5.32h-1.02Z" fill="#fff" stroke="#fff" stroke-width=".4"/><path id="path10510" d="M3.98,319.56V40.55" fill="#fff" stroke="#fff" stroke-width=".4"/><path id="path10512" d="M22.62,327.07v8.31c-.02,.54-.19,1.06-.49,1.51H4.47c-.3-.45-.46-.97-.49-1.51v-8.31" fill="#fff" stroke="#fff" stroke-width=".4"/><path id="path10514" d="M16.83,337.57c.94,1.65,1.6,3.45,1.95,5.32h-4.91c.35-1.87,1.01-3.66,1.95-5.32" fill="#fff" stroke="#fff" stroke-width=".4"/><path id="path10516" d="M14.58,337.57h3.48" fill="#fff" stroke="#fff" stroke-width=".4"/><path id="path10518" d="M4.53,336.89c-.01,.25,.07,.49,.22,.68h3.48c.07-.09,.12-.19,.16-.3" fill="#fff" stroke="#fff" stroke-width=".4"/><path id="path10520" d="M8.32,336.89c-.01,.25,.07,.49,.22,.68" fill="#fff" stroke="#fff" stroke-width=".4"/><path id="path10610" d="M22.61,124.21l1.28,2.21v21.3l-.53,3.45v176.4l-.97,3.69v-33.5l-.5-1.62v-2.88l.47-1.76v-15.93l-.55-2.06v-4.13l.46-2.12v-110.06l-.44-2.44v-30.5l.78-.05Z" fill-rule="evenodd" stroke="#fff" stroke-miterlimit="10" stroke-width=".25"/><path id="path10612" d="M3.98,332.5H22.62" fill="#fff" stroke="#fff" stroke-width=".4"/><path id="path10614" d="M3.98,318.5H22.62" fill="#fff" stroke="#fff" stroke-width=".4"/><g id="g10796"><path id="path10774" d="M3.25,333.72l.69-6.28,.17-1.97,.61-4.62,.09-.64,.33-.53,.42-.38,.42-.19,.44-.05,.3,.05,.27,.2,5.09,14.12,.3,.27,.34,.06-.02-.23-7.69-20.67-.38-.42-.41-.27-.42,.11-.17,.52-1.61,19.91,.39,.5,.39,.36,.44,.16Z" fill="#fff" fill-rule="evenodd"/><path id="path10776" d="M7.81,283.13l-1.23-1.31" fill="#fff" stroke="#fff" stroke-width=".4"/><path id="path10778" d="M6.57,281.82h-2.43" fill="#fff" stroke="#fff" stroke-width=".4"/><path id="path10780" d="M4.05,312.19l.17-24.12" fill="#fff" stroke="#fff" stroke-width=".4"/><path id="path10782" d="M4.23,288.07l2.16-2.93" fill="#fff" stroke="#fff" stroke-width=".4"/><path id="path10784" d="M4.23,288.07l-1.03-2.67" fill="#fff" stroke="#fff" stroke-width=".4"/><path id="path10786" d="M6.39,285.14l.18-3.32" fill="#fff" stroke="#fff" stroke-linecap="round" stroke-width=".4"/><path id="path10788" d="M3.36,332.82h.61" fill="#fff" stroke="#fff" stroke-width=".4"/><path id="path10790" d="M3.29,333.47h.69" fill="#fff" stroke="#fff" stroke-width=".4"/><path id="path10794" d="M6.33,278.28h-.06s-.06,.01-.06,.01l-.06,.02-.06,.02-.06,.03-.06,.03-.06,.04-.06,.05-.06,.05-.06,.06-.07,.07-.07,.08-.07,.08-.07,.09-.07,.1-.07,.11-.07,.12-.07,.13-.07,.14-.08,.14-.08,.15-.08,.16-.08,.16-.07,.17-.07,.17-.07,.17-.07,.17-.07,.17-.07,.17-.06,.17-.06,.17-.06,.17-.05,.17-.05,.17-.04,.17-.04,.17-.04,.17-.04,.17-.03,.15v.04s-.04,.08-.04,.08l-.03,.08-.05,.15-.05,.14-.05,.14-.04,.14-.04,.14-.04,.14-.04,.14-.04,.13-.04,.14-.03,.14-.03,.14-.03,.14-.03,.15v.08s-.03,.08-.03,.08l-.02,.08v.08s-.03,.08-.03,.08v.08s-.03,.09-.03,.09v.09s-.03,.09-.03,.09l-.02,.09v.05s0,.01,0,.01h0v.05s-.02,.45-.02,.45l-.06,1.8-.24,7.21-.48,14.43-.48,14.43-.24,7.21v.11s0,.06,0,.06h0s0,.02,0,.02v.02s.01,.05,.01,.05l.02,.09,.02,.09,.02,.09,.02,.09,.03,.09,.03,.09,.03,.09,.03,.09,.04,.09,.04,.09,.04,.09,.05,.09,.05,.09,.06,.09,.06,.09,.07,.09,.04,.04,.04,.04,.04,.04,.04,.04,.04,.04,.04,.04,.05,.04,.05,.04,.05,.04,.05,.04,.05,.04,.06,.04,.06,.04,.06,.04,.06,.04,.06,.04,.06,.04,.03,.02h.07s.01-.02,.01-.02h0s0-.02,0-.02h0s0-.03,0-.03h0s0-.03,0-.03v-.03s.05-.38,.05-.38l.03-.26,.03-.26,.03-.26,.03-.27,.03-.27,.03-.27,.03-.27,.03-.27,.03-.28,.06-.55,.06-.56,.06-.56,.06-.56,.12-1.13,.06-.56,.06-.56,.06-.55,.03-.28,.03-.28,.03-.27,.03-.27,.03-.27,.03-.27,.03-.26,.03-.26,.03-.26,.03-.26,.03-.26,.03-.25,.04-.25,.03-.24,.04-.24,.04-.24,.04-.23,.04-.23,.04-.23,.04-.22,.04-.22,.04-.21,.05-.14,.08-.15,.11-.16,.13-.16,.16-.15,.18-.14,.2-.11,.21-.08,.22-.04h.23l.24,.05,.24,.11,.4,1.06,.42,1.17,.42,1.17,.42,1.17,.42,1.17,.42,1.17,.42,1.17,.42,1.17,.42,1.17,.42,1.17,.42,1.17,.42,1.17,.11,.28,.02,.03,.02,.03,.02,.03,.03,.03,.03,.03,.03,.02,.03,.02,.03,.02,.03,.02,.03,.02h.03s.03,.02,.03,.02h.03s.03,.02,.03,.02h.3l.05-.03,.05-.05,.05-.07,.05-.09,.05-.11,.04-.13,.04-.14,.04-.15,.03-.16,.03-.16,.02-.16-.19-1.82-.45-3.82-.45-3.81-.45-3.82-.45-3.81-.45-3.82-.45-3.81-.45-3.82-.45-3.81-.45-3.82-.45-3.81-.45-3.82-.29-2.58v-.25s0-.25,0-.25v-.25s0-.25,0-.25v-.25s0-.25,0-.25v-.25s0-.25,0-.25v-.25s0-.25,0-.25v-.25s-.01-.31-.01-.31l-.04-.49-.04-.44-.04-.4-.04-.36-.04-.32-.04-.29-.04-.26-.04-.23-.04-.21-.04-.19-.04-.17-.04-.16-.04-.14-.05-.13-.04-.12-.05-.11-.05-.1-.05-.09-.05-.08-.05-.07-.05-.07-.05-.06-.05-.05-.05-.04-.05-.04-.05-.03-.05-.03-.06-.02h-.06s-.06-.02-.06-.02h-.06Z" fill="#fff" stroke="#fff" stroke-width=".4"/></g><g id="g10824"><path d="M22.96,312.8l-.17-.52-.42-.11-.41,.27-.38,.42-7.69,20.67-.02,.23,.34-.06,.3-.27,5.09-14.12,.27-.2,.3-.05,.44,.05,.42,.19,.42,.38,.33,.53,.09,.64,.61,4.62,.17,1.97,.68,6.19s.01,0,.02,0c.05,0,.11-.02,.17-.02,.03,0,.06,.02,.09,.02l.17-.06,.39-.36,.39-.5-1.61-19.91Z" fill="#fff" fill-rule="evenodd"/><path id="path10806" d="M20.03,281.82h2.43" fill="#fff" stroke="#fff" stroke-width=".4"/><path id="path10808" d="M22.55,312.19l-.17-24.12" fill="#fff" stroke="#fff" stroke-width=".4"/><path id="path10810" d="M22.37,288.07l-2.16-2.93" fill="#fff" stroke="#fff" stroke-width=".4"/><path id="path10812" d="M22.37,288.07l1.03-2.67" fill="#fff" stroke="#fff" stroke-width=".4"/><path id="path10814" d="M20.21,285.14l-.18-3.32" fill="#fff" stroke="#fff" stroke-linecap="round" stroke-width=".4"/><path id="path10816" d="M23.24,332.82h-.61" fill="#fff" stroke="#fff" stroke-width=".4"/><path id="path10818" d="M23.31,333.47h-.69" fill="#fff" stroke="#fff" stroke-width=".4"/><path id="path10822" d="M20.8,278.28h.06s.06,.01,.06,.01l.06,.02,.06,.02,.06,.03,.06,.03,.06,.04,.06,.05,.06,.05,.06,.06,.07,.07,.07,.08,.07,.08,.07,.09,.07,.1,.07,.11,.07,.12,.07,.13,.07,.14,.08,.14,.08,.15,.08,.16,.08,.16,.07,.17,.07,.17,.07,.17,.07,.17,.07,.17,.07,.17,.06,.17,.06,.17,.06,.17,.05,.17,.05,.17,.04,.17,.04,.17,.04,.17,.04,.17,.03,.15v.04s.04,.08,.04,.08l.03,.08,.05,.15,.05,.14,.05,.14,.04,.14,.04,.14,.04,.14,.04,.14,.04,.13,.04,.14,.03,.14,.03,.14,.03,.14,.03,.15v.08s.03,.08,.03,.08l.02,.08v.08s.03,.08,.03,.08v.08s.03,.09,.03,.09v.09s.03,.09,.03,.09l.02,.09v.05s0,.01,0,.01h0v.05s.02,.45,.02,.45l.06,1.8,.24,7.21,.48,14.43,.48,14.43,.24,7.21v.11s0,.06,0,.06h0s0,.02,0,.02v.02s-.01,.05-.01,.05l-.02,.09-.02,.09-.02,.09-.02,.09-.03,.09-.03,.09-.03,.09-.03,.09-.04,.09-.04,.09-.04,.09-.05,.09-.05,.09-.06,.09-.06,.09-.07,.09-.04,.04-.04,.04-.04,.04-.04,.04-.04,.04-.04,.04-.05,.04-.05,.04-.05,.04-.05,.04-.05,.04-.06,.04-.06,.04-.06,.04-.06,.04-.06,.04-.06,.04-.03,.02h-.07s-.01-.02-.01-.02h0s0-.02,0-.02h0s0-.03,0-.03h0s0-.03,0-.03v-.03s-.02-.13-.02-.13l-.03-.26-.03-.26-.03-.26-.03-.26-.03-.27-.03-.27-.03-.27-.03-.27-.03-.27-.03-.28-.06-.55-.06-.56-.06-.56c-.29,.01-.58,.03-.87,.04-.03-.68-.06-1.36-.1-2.04,.24-.08,.48-.17,.72-.25l-.06-.56-.06-.55-.03-.28-.03-.28-.03-.27-.03-.27-.03-.27-.03-.27-.03-.26-.03-.26-.03-.26-.03-.26-.03-.26-.03-.25-.04-.25-.03-.24-.04-.24-.04-.24-.04-.23-.04-.23-.04-.23-.04-.22-.04-.22-.04-.21-.05-.14-.08-.15-.11-.16-.13-.16-.16-.15-.18-.14-.2-.11-.21-.08-.22-.04h-.23l-.24,.05-.24,.11-.4,1.06-.42,1.17-.42,1.17-.42,1.17-.42,1.17-.42,1.17-.42,1.17-.42,1.17-.42,1.17-.42,1.17-.42,1.17-.42,1.17-.11,.28-.02,.03-.02,.03-.02,.03-.03,.03-.03,.03-.03,.02-.03,.02-.03,.02-.03,.02-.03,.02h-.03s-.03,.02-.03,.02h-.03s-.03,.02-.03,.02h-.3l-.05-.03-.05-.05-.05-.07-.05-.09-.05-.11-.04-.13-.04-.14-.04-.15-.03-.16-.03-.16-.02-.16,.19-1.82,.45-3.82,.45-3.81,.45-3.82,.45-3.81,.45-3.82,.45-3.81,.45-3.82,.45-3.81,.45-3.82,.45-3.81,.45-3.82,.29-2.58v-.25s0-.25,0-.25v-.25s0-.25,0-.25v-.25s0-.25,0-.25v-.25s0-.25,0-.25v-.25s0-.25,0-.25v-.25s.01-.31,.01-.31l.04-.49,.04-.44,.04-.4,.04-.36,.04-.32,.04-.29,.04-.26,.04-.23,.04-.21,.04-.19,.04-.17,.04-.16,.04-.14,.05-.13,.04-.12,.05-.11,.05-.1,.05-.09,.05-.08,.05-.07,.05-.07,.05-.06,.05-.05,.05-.04,.05-.04,.05-.03,.05-.03,.06-.02c.06,0,.11-.01,.17-.02Z" fill="#fff" stroke="#fff" stroke-width=".4"/></g><g id="g5270"><g id="g5192"><path id="path5118" d="M20.66,118.56l.82,.38,.22,.9-.58,.74-1.07,.06-.61-.68,.15-.84,.44-.51,.63-.05Z" fill="#fff" fill-rule="evenodd"/><path id="path5120" d="M18.89,120.72l-.53-.07-1.3,1.59-.02,.93-.16,.77,.2,.84-.18,.93,.12,.77-.14,.69,.2,.69-.18,.82,.08,.55-.06,.82,.65,.2-.02-7.92,1.34-1.62Z" fill="#fff" fill-rule="evenodd"/><path id="path5122" d="M17.56,130.3l5.87-.03v-7.95l-1.72-2.6-.69,.97-.91,.06-.37-.35-.55-.27-.29,.66-1.35,1.53v7.98Z" fill="#fff" fill-rule="evenodd"/><path id="path5124" d="M17.6,122.35v7.87h5.79l-5.79-7.87,1.3-1.63,.38-1" fill="#fff" stroke="#fff" stroke-linecap="round" stroke-linejoin="round" stroke-width=".38"/><path id="path5126" d="M17.6,124.17l4.53,6.02" fill="#fff" stroke="#fff" stroke-linecap="round" stroke-linejoin="round" stroke-width=".38"/><path id="path5128" d="M20.94,130.19l-3.34-4.4" fill="#fff" stroke="#fff" stroke-linecap="round" stroke-linejoin="round" stroke-width=".38"/><path id="path5130" d="M19.85,130.17l-2.25-2.74" fill="#fff" stroke="#fff" stroke-linecap="round" stroke-linejoin="round" stroke-width=".38"/><path id="path5132" d="M18.65,130.21l-1.05-1.33" fill="#fff" stroke="#fff" stroke-linecap="round" stroke-linejoin="round" stroke-width=".38"/><path id="path5134" d="M23.39,130.19v-7.9l-1.14-1.73" fill="#fff" stroke="#fff" stroke-linecap="round" stroke-linejoin="round" stroke-width=".38"/><path id="path5136" d="M17.62,130.21l5.75-7.88" fill="#fff" stroke="#fff" stroke-linecap="round" stroke-linejoin="round" stroke-width=".38"/><path id="path5138" d="M23.39,124.17l-4.53,6.02" fill="#fff" stroke="#fff" stroke-linecap="round" stroke-linejoin="round" stroke-width=".38"/><path id="path5140" d="M20.02,130.19l3.34-4.4" fill="#fff" stroke="#fff" stroke-linecap="round" stroke-linejoin="round" stroke-width=".38"/><path id="path5142" d="M21.15,130.17l2.23-2.73" fill="#fff" stroke="#fff" stroke-linecap="round" stroke-linejoin="round" stroke-width=".38"/><path id="path5144" d="M19.85,130.17l-2.25-2.74" fill="#fff" stroke="#fff" stroke-linecap="round" stroke-linejoin="round" stroke-width=".38"/><path id="path5146" d="M22.32,130.21l1.05-1.33" fill="#fff" stroke="#fff" stroke-linecap="round" stroke-linejoin="round" stroke-width=".38"/><path id="path5148" d="M17.62,128.71l5.21-7.26" fill="#fff" stroke="#fff" stroke-linecap="round" stroke-linejoin="round" stroke-width=".38"/><path id="path5150" d="M17.59,127.21l4.12-5.87" fill="#fff" stroke="#fff" stroke-linecap="round" stroke-linejoin="round" stroke-width=".38"/><path id="path5152" d="M23.38,128.67l-5.13-7.13" fill="#fff" stroke="#fff" stroke-linecap="round" stroke-linejoin="round" stroke-width=".38"/><path id="path5154" d="M23.38,127.11l-3.98-5.67" fill="#fff" stroke="#fff" stroke-linecap="round" stroke-linejoin="round" stroke-width=".38"/><path id="path5156" d="M17.58,125.54l2.94-4.19,1.24-1.52" fill="#fff" stroke="#fff" stroke-linecap="round" stroke-linejoin="round" stroke-width=".38"/><path id="path5158" d="M23.41,125.54l-2.89-4.22-1.25-1.62" fill="#fff" stroke="#fff" stroke-linecap="round" stroke-linejoin="round" stroke-width=".38"/><path id="path5160" d="M17.6,123.95l1.8-2.5" fill="#fff" stroke="#fff" stroke-linecap="round" stroke-linejoin="round" stroke-width=".38"/><path id="path5162" d="M23.37,123.93l-1.66-2.58" fill="#fff" stroke="#fff" stroke-linecap="round" stroke-linejoin="round" stroke-width=".38"/><path id="path5164" d="M22.28,120.63l-.24-.02-.33,.74,.09-.78-.03-.75,.5,.8Z" fill="#fff" fill-rule="evenodd" stroke="#fff" stroke-linecap="round" stroke-linejoin="round" stroke-width=".38"/><path id="path5166" d="M18.9,120.71l.19,.02,.31,.71-.11-.88v-.84s-.4,.98-.4,.98Z" fill="#fff" fill-rule="evenodd" stroke="#fff" stroke-linecap="round" stroke-linejoin="round" stroke-width=".38"/><path id="path5168" d="M20.48,119.8v.71h-.13s-.24,.25-.24,.25l.42,.56,.52-.51-.23-.27-.13-.02v-.73s-.23,0-.23,0Z" fill="#fff" fill-rule="evenodd" stroke="#fff" stroke-linecap="round" stroke-linejoin="round" stroke-width=".38"/><path id="path5170" d="M20.09,120.79l-.74,.08" fill="#fff" stroke="#fff" stroke-linecap="round" stroke-linejoin="round" stroke-width=".38"/><path id="path5172" d="M21.07,120.79l.7,.07" fill="#fff" stroke="#fff" stroke-linecap="round" stroke-linejoin="round" stroke-width=".38"/><path id="path5174" d="M18.93,120.69l-.57-.04s-.11,.31-.23,.44-.52,.28-.52,.28c0,0,0,.27-.09,.43-.1,.16-.53,.41-.53,.41,0,0,.13,.54,.11,.82-.02,.28-.25,.82-.25,.82,0,0,.24,.56,.24,.85s-.23,.8-.23,.8c0,0,.19,.62,.19,.91s-.16,.79-.16,.79c0,0,.21,.54,.2,.81s-.24,.72-.24,.72c0,0,.2,.48,.19,.71,0,.23-.19,.61-.19,.61l.72,.21" fill="#fff" stroke="#fff" stroke-linecap="round" stroke-linejoin="round" stroke-width=".38"/><path id="path5176" d="M17.01,122.2l.54,.12" fill="#fff" stroke="#fff" stroke-linecap="round" stroke-linejoin="round" stroke-width=".38"/><path id="path5178" d="M18.25,121.57l-.07,1.55" fill="#fff" stroke="#fff" stroke-linecap="round" stroke-linejoin="round" stroke-width=".38"/><path id="path5180" d="M19.39,121.51l-.07,1.45" fill="#fff" stroke="#fff" stroke-linecap="round" stroke-linejoin="round" stroke-width=".38"/><path id="path5182" d="M21.7,121.42v1.55" fill="#fff" stroke="#fff" stroke-linecap="round" stroke-linejoin="round" stroke-width=".38"/><path id="path5184" d="M22.83,121.5v1.56" fill="#fff" stroke="#fff" stroke-linecap="round" stroke-linejoin="round" stroke-width=".38"/><path id="path5186" d="M19,119.78l.48-.02,.08-.56,.33-.47,.59-.17,.42-.06-.48-.36h-.73l-.5,.41-.19,.67v.56Z" fill="#fff" fill-rule="evenodd"/><path id="path5188" d="M21.12,118.62s-.49-.37-.65-.42c-.2-.06-.41-.09-.61-.07-.18,.02-.37,.08-.51,.2-.13,.11-.2,.28-.26,.44-.07,.18-.08,.38-.1,.58-.02,.18-.02,.55-.02,.55l.47,.42" fill="#fff" stroke="#fff" stroke-linecap="round" stroke-linejoin="round" stroke-width=".38"/><path id="path5190" d="M19.48,119.7s.01-.35,.08-.51c.09-.21,.23-.42,.43-.53,.16-.09,.36-.08,.55-.09,.18,0,.38-.02,.55,.04,.16,.06,.32,.17,.43,.31,.07,.1,.09,.23,.12,.35,.04,.18,.08,.55,.08,.55" fill="#fff" stroke="#fff" stroke-linecap="round" stroke-linejoin="round" stroke-width=".38"/></g><g id="g5268"><path id="path5194" d="M5.92,118.56l-.82,.38-.22,.9,.58,.74,1.07,.06,.61-.68-.15-.84-.44-.51-.63-.05Z" fill="#fff" fill-rule="evenodd"/><path id="path5196" d="M7.69,120.72l.53-.07,1.3,1.59,.02,.93,.16,.77-.2,.84,.18,.93-.12,.77,.14,.69-.2,.69,.18,.82-.08,.55,.06,.82-.65,.2,.02-7.92-1.34-1.62Z" fill="#fff" fill-rule="evenodd"/><path id="path5198" d="M9.02,130.3l-5.87-.03v-7.95l1.72-2.6,.69,.97,.91,.06,.37-.35,.55-.27,.29,.66,1.35,1.53v7.98Z" fill="#fff" fill-rule="evenodd"/><path id="path5200" d="M8.98,122.35v7.87H3.19l5.79-7.87-1.3-1.63-.38-1" fill="#fff" stroke="#fff" stroke-linecap="round" stroke-linejoin="round" stroke-width=".38"/><path id="path5202" d="M8.98,124.17l-4.53,6.02" fill="#fff" stroke="#fff" stroke-linecap="round" stroke-linejoin="round" stroke-width=".38"/><path id="path5204" d="M5.64,130.19l3.34-4.4" fill="#fff" stroke="#fff" stroke-linecap="round" stroke-linejoin="round" stroke-width=".38"/><path id="path5206" d="M6.74,130.17l2.25-2.74" fill="#fff" stroke="#fff" stroke-linecap="round" stroke-linejoin="round" stroke-width=".38"/><path id="path5208" d="M7.93,130.21l1.05-1.33" fill="#fff" stroke="#fff" stroke-linecap="round" stroke-linejoin="round" stroke-width=".38"/><path id="path5210" d="M3.19,130.19v-7.9l1.14-1.73" fill="#fff" stroke="#fff" stroke-linecap="round" stroke-linejoin="round" stroke-width=".38"/><path id="path5212" d="M8.96,130.21l-5.75-7.88" fill="#fff" stroke="#fff" stroke-linecap="round" stroke-linejoin="round" stroke-width=".38"/><path id="path5214" d="M3.19,124.17l4.53,6.02" fill="#fff" stroke="#fff" stroke-linecap="round" stroke-linejoin="round" stroke-width=".38"/><path id="path5216" d="M6.56,130.19l-3.34-4.4" fill="#fff" stroke="#fff" stroke-linecap="round" stroke-linejoin="round" stroke-width=".38"/><path id="path5218" d="M5.43,130.17l-2.23-2.73" fill="#fff" stroke="#fff" stroke-linecap="round" stroke-linejoin="round" stroke-width=".38"/><path id="path5220" d="M6.74,130.17l2.25-2.74" fill="#fff" stroke="#fff" stroke-linecap="round" stroke-linejoin="round" stroke-width=".38"/><path id="path5222" d="M4.26,130.21l-1.05-1.33" fill="#fff" stroke="#fff" stroke-linecap="round" stroke-linejoin="round" stroke-width=".38"/><path id="path5224" d="M8.96,128.71l-5.21-7.26" fill="#fff" stroke="#fff" stroke-linecap="round" stroke-linejoin="round" stroke-width=".38"/><path id="path5226" d="M8.99,127.21l-4.12-5.87" fill="#fff" stroke="#fff" stroke-linecap="round" stroke-linejoin="round" stroke-width=".38"/><path id="path5228" d="M3.2,128.67l5.13-7.13" fill="#fff" stroke="#fff" stroke-linecap="round" stroke-linejoin="round" stroke-width=".38"/><path id="path5230" d="M3.2,127.11l3.98-5.67" fill="#fff" stroke="#fff" stroke-linecap="round" stroke-linejoin="round" stroke-width=".38"/><path id="path5232" d="M9,125.54l-2.94-4.19-1.24-1.52" fill="#fff" stroke="#fff" stroke-linecap="round" stroke-linejoin="round" stroke-width=".38"/><path id="path5234" d="M3.17,125.54l2.89-4.22,1.25-1.62" fill="#fff" stroke="#fff" stroke-linecap="round" stroke-linejoin="round" stroke-width=".38"/><path id="path5236" d="M8.98,123.95l-1.8-2.5" fill="#fff" stroke="#fff" stroke-linecap="round" stroke-linejoin="round" stroke-width=".38"/><path id="path5238" d="M3.21,123.93l1.66-2.58" fill="#fff" stroke="#fff" stroke-linecap="round" stroke-linejoin="round" stroke-width=".38"/><path id="path5240" d="M4.3,120.63l.24-.02,.33,.74-.09-.78,.03-.75-.5,.8Z" fill="#fff" fill-rule="evenodd" stroke="#fff" stroke-linecap="round" stroke-linejoin="round" stroke-width=".38"/><path id="path5242" d="M7.68,120.71l-.19,.02-.31,.71,.11-.88v-.84s.4,.98,.4,.98Z" fill="#fff" fill-rule="evenodd" stroke="#fff" stroke-linecap="round" stroke-linejoin="round" stroke-width=".38"/><path id="path5244" d="M6.1,119.8v.71h.13s.24,.25,.24,.25l-.42,.56-.52-.51,.23-.27,.13-.02v-.73s.23,0,.23,0Z" fill="#fff" fill-rule="evenodd" stroke="#fff" stroke-linecap="round" stroke-linejoin="round" stroke-width=".38"/><path id="path5246" d="M6.49,120.79l.74,.08" fill="#fff" stroke="#fff" stroke-linecap="round" stroke-linejoin="round" stroke-width=".38"/><path id="path5248" d="M5.51,120.79l-.7,.07" fill="#fff" stroke="#fff" stroke-linecap="round" stroke-linejoin="round" stroke-width=".38"/><path id="path5250" d="M7.65,120.69l.57-.04s.11,.31,.23,.44,.52,.28,.52,.28c0,0,0,.27,.09,.43,.1,.16,.53,.41,.53,.41,0,0-.13,.54-.11,.82,.02,.28,.25,.82,.25,.82,0,0-.24,.56-.24,.85s.23,.8,.23,.8c0,0-.19,.62-.19,.91s.16,.79,.16,.79c0,0-.21,.54-.2,.81s.24,.72,.24,.72c0,0-.2,.48-.19,.71,0,.23,.19,.61,.19,.61l-.72,.21" fill="#fff" stroke="#fff" stroke-linecap="round" stroke-linejoin="round" stroke-width=".38"/><path id="path5252" d="M9.57,122.2l-.54,.12" fill="#fff" stroke="#fff" stroke-linecap="round" stroke-linejoin="round" stroke-width=".38"/><path id="path5254" d="M8.33,121.57l.07,1.55" fill="#fff" stroke="#fff" stroke-linecap="round" stroke-linejoin="round" stroke-width=".38"/><path id="path5256" d="M7.19,121.51l.07,1.45" fill="#fff" stroke="#fff" stroke-linecap="round" stroke-linejoin="round" stroke-width=".38"/><path id="path5258" d="M4.89,121.42v1.55" fill="#fff" stroke="#fff" stroke-linecap="round" stroke-linejoin="round" stroke-width=".38"/><path id="path5260" d="M3.75,121.5v1.56" fill="#fff" stroke="#fff" stroke-linecap="round" stroke-linejoin="round" stroke-width=".38"/><path id="path5262" d="M7.58,119.78l-.48-.02-.08-.56-.33-.47-.59-.17-.42-.06,.48-.36h.73l.5,.41,.19,.67v.56Z" fill="#fff" fill-rule="evenodd"/><path id="path5264" d="M5.46,118.62s.49-.37,.65-.42c.2-.06,.41-.09,.61-.07,.18,.02,.37,.08,.51,.2,.13,.11,.2,.28,.26,.44,.07,.18,.08,.38,.1,.58,.02,.18,.02,.55,.02,.55l-.47,.42" fill="#fff" stroke="#fff" stroke-linecap="round" stroke-linejoin="round" stroke-width=".38"/><path id="path5266" d="M7.1,119.7s-.01-.35-.08-.51c-.09-.21-.23-.42-.43-.53-.16-.09-.36-.08-.55-.09-.18,0-.38-.02-.55,.04-.16,.06-.32,.17-.43,.31-.07,.1-.09,.23-.12,.35-.04,.18-.08,.55-.08,.55" fill="#fff" stroke="#fff" stroke-linecap="round" stroke-linejoin="round" stroke-width=".38"/></g></g><path id="path10428" d="M3.99,332.45l18.57,.03v3.27s-.69,1.75-.69,1.75l-17.17-.05-.7-1.75v-3.25Z"/><rect id="rect10415" x="3.96" y="318.44" width="18.67" height="14.11" fill="#fff"/></g></g><g id="g5202"><path id="path6621" d="M3.85,22.59s-.26-.22-.33-.38c-.12-.26-.09-.86-.09-.86H23.15s.03,.6-.09,.86c-.07,.15-.33,.38-.33,.38H3.85Z" fill="#fff" fill-rule="evenodd" stroke="#fff" stroke-linecap="round" stroke-linejoin="round" stroke-width=".4"/><g id="g6583"><path id="path6577" d="M3.81,40.86s-2.84-.55-3.11-.6c-.27-.04-.4-.16-.44-.41,0-1.03-.06-6.16-.06-6.16l3.88-9.19,.12,16.32-.38,.03Z" fill="#fff" fill-rule="evenodd" stroke="#fff" stroke-linecap="round" stroke-linejoin="round" stroke-width=".4"/><path id="path6565" d="M22.77,40.86s2.84-.55,3.11-.6c.27-.04,.4-.16,.44-.41,0-1.03,.06-6.16,.06-6.16l-3.88-9.19-.12,16.32,.38,.03Z" fill="#fff" fill-rule="evenodd" stroke="#fff" stroke-linecap="round" stroke-linejoin="round" stroke-width=".4"/></g><g id="g7199"><path id="path7162" d="M6.5,12.22m-.05,.2-.05,.2-1.24,.11" fill="#fff" stroke="#000" stroke-miterlimit="10" stroke-width=".05"/><g id="g7197"><g id="g7189"><g id="g7182"><g id="g7178"><g id="use7176"><path id="s" d="M5.18,12.76v.07s-.03-.04-.03-.04h.04s-.04,.04-.04,.04l.03-.07Z" fill="#fff"/></g></g><g id="use7180"><g id="s4"><g id="use11044"><path id="s-2" d="M5.24,12.68v.07s-.03-.04-.03-.04h.04s-.04,.04-.04,.04l.03-.07Z" fill="#fff"/></g></g></g></g><g id="use7184"><g id="s9"><g id="s5"><g id="use11046"><path id="s-3" d="M5.27,12.75v.07s-.03-.04-.03-.04h.04s-.04,.04-.04,.04l.03-.07Z" fill="#fff"/></g></g></g></g></g></g></g><path id="path6726" d="M3.34,21.48c-.2-3.77,.57-6.35,1.04-7.7,.47-1.34,1.89-4.34,2.44-5.68,.55-1.34,.42-1.31,.91-2.33,.49-1.02,1.37-2.86,2.12-3.73,.75-.87,1.48-1.34,2.05-1.6s1.15-.24,1.38-.24,.81-.02,1.38,.24,1.3,.73,2.05,1.6,1.64,2.7,2.12,3.73c.49,1.02,.36,.99,.91,2.33,.55,1.34,1.97,4.33,2.44,5.68s1.25,3.93,1.04,7.7H3.34Z" fill="#fff" stroke="#fff" stroke-linecap="round" stroke-linejoin="round" stroke-width=".4"/><polyline id="rect6609" points="3.96 40.88 3.96 22.48 22.62 22.48 22.62 40.88" fill="#fff" stroke="#fff" stroke-width=".4"/></g></g></g><polygon points="3.92 333.47 5.4 333.47 23.84 333.47 23.9 329.37 3.29 329.37 3.29 333.47 3.92 333.47" fill="#fff" stroke="#fff" stroke-width=".4"/></svg>