<?xml version="1.0" encoding="utf-8"?>
<!-- Generator: Adobe Illustrator 27.0.0, SVG Export Plug-In . SVG Version: 6.00 Build 0)  -->
<svg version="1.1" id="Layer_1" xmlns="http://www.w3.org/2000/svg" xmlns:xlink="http://www.w3.org/1999/xlink" x="0px" y="0px"
	 viewBox="0 0 25.6 144.3" style="enable-background:new 0 0 25.6 144.3;" xml:space="preserve">
<style type="text/css">
	.st0{fill:#FFFFFF;}
</style>
<path class="st0" d="M22.1,144.1c0,0.1,0,0.1,0,0.2c-0.1,0-0.1,0-0.2,0c-0.5,0-1,0-1.6,0c0,0,0,0-0.1,0c-0.1,0-0.1,0-0.2-0.1
	c0,0,0-0.1,0-0.1c-0.1-0.1-0.2-0.1-0.3-0.1c-0.3,0-0.6,0-0.9,0c-0.4,0-0.8,0-1.1,0c-0.1,0-0.2,0-0.3,0c-0.1-0.1-0.1-0.1-0.1-0.2
	c0-0.2,0.1-0.4,0.1-0.6c0.1-0.3,0.3-0.7,0.4-1c0-0.1,0.1-0.1,0.1-0.2c-0.1,0-0.1-0.1-0.1-0.1c-0.2,0-0.3-0.1-0.3-0.3
	c0-0.1-0.1-0.2-0.1-0.3c0-0.1-0.1-0.1-0.2-0.1c-0.2,0-0.3,0-0.5-0.1c-0.1-0.1-0.2-0.1-0.4,0c-0.1,0.2-0.2,0.3-0.2,0.5
	c0,0.1-0.1,0.2-0.3,0.2c-0.1,0-0.1,0-0.2,0c0,0.1,0,0.2,0.1,0.3c0.2,0.4,0.4,0.9,0.5,1.4c0.1,0.4,0,0.4-0.3,0.4c-0.7,0-1.3,0-2,0
	c-0.1,0-0.2,0-0.3,0.1c0,0.1,0,0.1,0,0.2c-0.1,0-0.1,0-0.2,0c-0.5,0-1,0-1.6,0c-0.1,0-0.1,0-0.2,0c0-0.1,0-0.2-0.1-0.2
	c-0.1-0.1-0.1-0.1-0.2-0.1c-0.2,0-0.4,0-0.7,0c-0.5,0-1,0-1.4,0c-0.1,0-0.2,0-0.3,0c-0.1-0.1,0-0.1,0-0.2c0.1-0.5,0.3-1,0.5-1.4
	c0-0.1,0.1-0.2,0.1-0.2c0,0,0-0.1,0-0.1c-0.1,0-0.1,0-0.2,0c-0.2,0-0.2-0.1-0.3-0.2c-0.1-0.1-0.1-0.3-0.2-0.4c0-0.1-0.1-0.1-0.2-0.1
	c-0.1,0-0.2,0-0.3,0.1c-0.1,0.1-0.2,0.1-0.3,0.1c-0.2,0-0.2,0.1-0.3,0.2c0,0.1-0.1,0.2-0.1,0.2c0,0.1-0.1,0.2-0.2,0.2
	c0,0-0.1,0-0.1,0c-0.1,0-0.1,0.1-0.1,0.2c0.1,0.2,0.2,0.4,0.3,0.6c0.1,0.3,0.2,0.7,0.3,1c0,0,0,0.1,0,0.1c0,0.1,0,0.1-0.1,0.2
	c-0.1,0-0.2,0-0.3,0c-0.6,0-1.3,0-1.9,0c-0.1,0-0.2,0-0.3,0c0,0.1,0,0.1-0.1,0.2c-0.1,0-0.1,0-0.2,0c-0.5,0-1,0-1.5,0
	c0,0-0.1,0-0.1,0c-0.1,0-0.1,0-0.1-0.1c0,0,0-0.1,0-0.1C3.5,144,3.4,144,3.3,144c-0.5,0-1,0-1.5,0c-0.2,0-0.4,0-0.6,0
	c-0.1,0-0.1,0-0.2,0c-0.1-0.1,0-0.2,0-0.2c0.1-0.4,0.2-0.7,0.3-1.1c0.1-0.2,0.2-0.3,0.2-0.5c0,0,0-0.1,0-0.1c-0.1,0-0.1,0-0.1,0
	c-0.2,0-0.2-0.1-0.3-0.2c-0.2-0.3-0.2-0.7-0.2-1.1c0-0.1,0-0.1-0.1-0.3c0,0,0,0,0,0c-0.2,0.1-0.3,0-0.4-0.1
	c-0.2-0.2-0.4-0.5-0.4-0.8c0-0.2,0-0.5,0-0.7c0-0.1,0-0.2,0-0.2c0-1.1,0.1-2.2,0.1-3.3c0-0.9,0.1-1.9,0.1-2.8c0-0.8,0-1.6,0.1-2.3
	c0-0.7,0.1-1.4,0.1-2c0-0.1,0-0.1,0-0.2c0-0.8,0-1.5,0.1-2.3c0-0.7,0.1-1.5,0.1-2.2c0-0.5,0-0.9,0-1.4c0-0.4,0.1-0.8,0.2-1.3
	c0.1-0.2,0.1-0.4,0.1-0.6c0-2.4,0-4.9,0-7.3V61.9c0-0.2,0-0.3,0-0.4c0,0,0,0,0,0c-0.2-0.1-0.2-0.1-0.2-0.3c0-0.9,0-1.8,0-2.7
	c0-0.1,0-0.2,0.1-0.3c0-0.1,0.1-0.1,0.1-0.2c0.1-0.1,0.1-0.2,0.1-0.3C1,56.9,1,56.2,1.1,55.5c0.1-1,0.4-2,0.9-2.9
	c0.3-0.4,0.5-0.9,0.8-1.3c0.3-0.4,0.6-0.7,1-1c0.3-0.2,0.7-0.3,1.1-0.2c0.1,0,0.1,0,0.2,0.1C5.5,50.4,5.8,50.7,6,51
	c0.7,0.8,1.2,1.7,1.5,2.6C7.8,54,7.8,54.5,7.9,55c0,0.1,0,0.3,0.1,0.4c0,0.1,0,0.1,0.1,0.2c0.1,0.1,0.2,0,0.3,0
	c0.1-0.1,0.2-0.1,0.3-0.2c0.1-0.1,0.3-0.2,0.5-0.2c0-0.1,0-0.1,0-0.2c0-0.1,0-0.2,0-0.2V30.4c0-1,0-2,0-3c0-0.2-0.1-0.4-0.2-0.6
	c-0.4-0.7-0.7-1.4-1.1-2c-0.1-0.1-0.1-0.2-0.1-0.3c0-0.5,0-0.9,0-1.4c0-4,0-8.1,0-12.1c0-0.7,0-1.3,0.1-2C7.9,8.3,8,7.6,8.1,7
	c0.1-0.6,0.3-1.2,0.5-1.8c0.2-0.7,0.5-1.4,0.9-2.1c0.4-0.7,0.9-1.4,1.5-2c0.2-0.2,0.3-0.3,0.5-0.5c0.3-0.2,0.5-0.4,0.9-0.5
	c0.7-0.2,1.2,0,1.7,0.5c0.3,0.3,0.6,0.6,0.9,1c0.3,0.4,0.7,0.8,0.9,1.3c0.5,0.8,0.9,1.6,1.2,2.5c0.3,0.8,0.4,1.6,0.5,2.5
	c0.1,0.9,0.2,1.9,0.2,2.8c0,4.2,0,8.3,0,12.5c0,0.4,0,0.9,0,1.3c0,0.1,0,0.3-0.1,0.4c-0.4,0.7-0.7,1.4-1.1,2
	c-0.1,0.1-0.1,0.3-0.1,0.5c0,0.7,0,1.4,0,2c0,4.4,0,8.8,0,13.2c0,3.9,0,7.9,0,11.8c0,0.2,0,0.4,0,0.6c0,0.1,0,0.2,0,0.2
	c0.1,0,0.2,0.1,0.3,0.1c0.1,0,0.2,0.1,0.2,0.2c0.1,0.1,0.2,0.1,0.3,0.2c0.1,0.1,0.2,0.1,0.3,0c0-0.1,0-0.2,0.1-0.3
	c0.1-0.6,0.2-1.2,0.5-1.8c0.1-0.3,0.3-0.6,0.4-0.9c0.3-0.5,0.5-0.9,0.9-1.4c0.2-0.3,0.5-0.6,0.8-0.8c0.3-0.2,0.6-0.3,1-0.3
	c0.2,0,0.3,0.1,0.5,0.2c0.3,0.1,0.5,0.3,0.7,0.5c0.2,0.3,0.4,0.5,0.6,0.8c0.3,0.5,0.7,1.1,0.9,1.6c0.2,0.5,0.4,1.1,0.5,1.7
	c0.1,0.8,0.2,1.6,0.3,2.4c0,0.1,0,0.2,0,0.3c0,0.2,0,0.3,0.1,0.4c0.1,0.1,0.1,0.3,0.1,0.5c0,0.9,0,1.7,0,2.6c0,0,0,0.1,0,0.1
	c0,0.1,0,0.2-0.2,0.2c0,0,0,0-0.1,0c0,0.1,0,0.2,0,0.3c0,1.5,0,3,0,4.5v46.6c0,2.4,0,4.7,0,7.1c0,0.3,0,0.6,0.1,1
	c0.1,0.4,0.2,0.7,0.2,1.1c0,1,0.1,2,0.1,3c0,0.7,0.1,1.4,0.1,2.1c0,0.6,0,1.3,0.1,1.9c0,0.8,0.1,1.7,0.1,2.5c0,0.2,0,0.4,0,0.7
	c0,0.8,0.1,1.7,0.1,2.5c0,0.6,0,1.3,0.1,1.9c0,0.9,0.1,1.7,0.1,2.6c0,0.3,0,0.5-0.1,0.8c-0.1,0.2-0.2,0.3-0.4,0.4
	c-0.1,0.1-0.2,0.1-0.3,0c0,0,0,0-0.1,0c-0.1,0-0.1,0.1-0.1,0.2c0,0.1,0,0.3,0,0.4c0,0.2,0,0.5-0.2,0.7c-0.1,0.1-0.1,0.2-0.1,0.3
	c-0.1,0.1-0.2,0-0.3,0.1c0,0-0.1,0.1-0.1,0.1c0,0.1,0.1,0.2,0.1,0.3c0.2,0.4,0.4,0.9,0.5,1.4c0,0,0,0,0,0c0,0.2,0,0.3-0.2,0.3
	c-0.7,0-1.4,0-2.1,0C22.3,144,22.2,144,22.1,144.1L22.1,144.1L22.1,144.1z M17.3,57.8c-0.2,0-0.5,0-0.7,0.1c-0.1,0-0.1,0.1-0.1,0.2
	c0,0.1,0,0.2,0,0.4c0,0.1,0.1,0.2,0.1,0.3c0,0.7,0,1.3,0,2c0,0.1,0,0.2,0,0.2c-0.1,0.1-0.1,0.3-0.1,0.4c0,0.3,0,0.6,0,1v21
	c0,2.3,0,4.7,0,7s0,4.6,0,7c0,2.9,0,5.7,0,8.6c0,2.3,0,4.6,0,6.9c0,2.5,0,4.9,0,7.4c0,0.2,0,0.4,0.1,0.7c0.2,0.4,0.2,0.9,0.2,1.3
	c0,0.7,0,1.4,0.1,2.1c0,0.1,0,0.2,0,0.2c0,0,0.1-0.1,0.1-0.1c0-0.1,0-0.3,0-0.4c0-0.7,0-1.3,0.1-2c0-0.4,0.1-0.8,0.2-1.2
	c0.1-0.2,0.1-0.5,0.1-0.7c0-0.8,0-1.6,0-2.3c0-4.4,0-8.8,0-13.1c0-4.4,0-8.8,0-13.2c0-4.9,0-9.8,0-14.7c0-4.4,0-8.8,0-13.2v-1.6
	c0-0.1,0-0.2,0-0.4c-0.1,0-0.2-0.1-0.2-0.1c0-0.1,0-0.2,0-0.3c0-0.8,0-1.7,0-2.5c0-0.2,0-0.3,0.1-0.5C17.3,58,17.3,57.9,17.3,57.8
	L17.3,57.8L17.3,57.8z M8.7,124.4c0-0.1,0-0.2,0-0.3c0-0.6,0-1.2,0-1.9c0-0.5,0.1-1,0.2-1.4c0.1-0.2,0.1-0.4,0.1-0.6
	c0-1.1,0-2.3,0-3.4V61.3c0-0.1,0-0.2,0-0.3c0-0.1,0-0.2,0-0.4c0-0.6,0-1.3,0-1.9c0-0.1,0-0.2,0-0.3c0-0.1,0-0.2,0-0.4
	c0-0.1,0-0.2-0.2-0.2c-0.2-0.1-0.4-0.1-0.6-0.1c0,0,0,0,0,0c0,0.1,0,0.1,0.1,0.2c0.1,0.2,0.2,0.4,0.2,0.6c0,0.8,0,1.6,0,2.4
	c0,0.1,0,0.1,0,0.2c0,0.2-0.1,0.3-0.2,0.3c0,0,0,0-0.1,0.1c0,0.1,0,0.2,0,0.3c0,0.4,0,0.9,0,1.3v51.3c0,1.9,0,3.8,0,5.7
	c0,0.2,0,0.4,0.1,0.5c0.2,0.5,0.3,1,0.3,1.5c0,0.2,0,0.3,0,0.5c0,0.5,0,0.9,0.1,1.4C8.7,124.2,8.7,124.3,8.7,124.4L8.7,124.4
	L8.7,124.4z M24.6,140c-0.1,0-0.2,0-0.3,0c-0.8,0-1.6,0-2.4,0c-0.2,0-0.3,0.1-0.4,0.2c-0.1,0.2-0.2,0.3-0.4,0.2c-0.1,0-0.1,0-0.2,0
	c0,0,0,0,0,0c-0.2,0.1-0.3,0-0.4-0.2c0,0,0-0.1,0-0.1c0-0.1-0.1-0.2-0.3-0.2c0,0-0.1,0-0.1,0h-2.3c-0.1,0-0.1,0-0.2,0
	c-0.1,0-0.1,0-0.1,0.1c0,0.1,0,0.3,0,0.4c0,0.1,0,0.1,0.1,0.1c0.1,0,0.2,0,0.3,0c0.1,0,0.2,0,0.3,0c0.1,0,0.1,0,0.2,0.1
	c0.1,0.1,0.1,0.4,0,0.5c0,0.1-0.1,0.1-0.2,0.1c-0.1,0-0.3,0-0.4,0c-0.1,0-0.2,0-0.3,0c0,0.1,0,0.2,0.1,0.2c0.1,0,0.2,0,0.3,0h6.2
	c0.1,0,0.2,0,0.2,0c0.1,0,0.1,0,0.1-0.1c0.1-0.1,0.1-0.3,0.1-0.4c0-0.3,0-0.6,0-0.9C24.6,140.1,24.6,140.1,24.6,140L24.6,140
	L24.6,140z M8.1,140c-0.1,0-0.2,0-0.3,0c-0.8,0-1.5,0-2.3,0c-0.2,0-0.3,0-0.4,0.3c-0.1,0.2-0.2,0.2-0.4,0.2c-0.1,0-0.2,0-0.3,0
	c-0.2,0.1-0.3,0-0.4-0.1c0-0.1-0.1-0.2-0.2-0.3c-0.1,0-0.2,0-0.2,0H1.3c-0.1,0-0.1,0-0.2,0c-0.1,0-0.1,0-0.1,0.1c0,0,0,0.1,0,0.1
	c0,0.3,0,0.6,0,0.8c0,0.1,0.1,0.3,0.1,0.4c0,0.1,0.1,0.1,0.2,0.1c0.1,0,0.2,0,0.3,0h6c0.1,0,0.2,0,0.3,0c0.1,0,0.1-0.1,0.1-0.2
	c-0.1,0-0.2,0-0.3,0c-0.1,0-0.3,0-0.4,0c-0.2,0-0.2-0.1-0.2-0.2c0-0.1,0-0.2,0-0.2c0-0.1,0.1-0.2,0.2-0.2c0.1,0,0.3,0,0.4,0
	c0.1,0,0.2,0,0.3,0c0.1,0,0.1,0,0.1-0.1C8.2,140.4,8.2,140.2,8.1,140L8.1,140L8.1,140z M13.5,140c0,0.1-0.1,0.2-0.1,0.2
	c-0.1,0.2-0.2,0.2-0.4,0.1c-0.1,0-0.2,0-0.3,0c-0.2,0.1-0.3,0-0.4-0.1c0-0.1-0.1-0.1-0.1-0.2c0-0.1-0.1-0.1-0.2-0.1
	c-0.1,0-0.1,0-0.2,0h-1.3c-0.3,0-0.7,0-1,0c-0.1,0-0.2,0-0.3,0.1c0,0.2,0,0.3,0,0.5c0,0.2,0.1,0.2,0.2,0.1c0,0,0,0,0.1,0
	c0.1-0.1,0.2-0.1,0.4-0.1c0.1,0,0.2,0.1,0.3,0.2c0,0.2,0,0.3,0,0.5c0,0.1-0.1,0.2-0.3,0.2c-0.1,0-0.3,0-0.4-0.1c0,0,0-0.1-0.1-0.1
	c-0.1,0-0.1,0-0.2,0c0,0,0,0.1,0,0.1c0.1,0.2,0.1,0.2,0.3,0.2c0.1,0,0.1,0,0.2,0h6c0.1,0,0.2,0,0.3,0c0.2,0,0.3-0.1,0.3-0.3
	c0-0.1,0-0.1-0.1-0.1c-0.1,0-0.1,0-0.1,0.1c-0.1,0.2-0.3,0.2-0.4,0.1c-0.1,0-0.1-0.1-0.2-0.1c-0.1-0.2-0.1-0.4,0-0.6
	c0-0.1,0.1-0.1,0.1-0.1c0.1,0,0.3-0.1,0.4,0.1c0,0,0.1,0.1,0.1,0.1c0.1,0,0.2,0,0.2-0.1c0-0.1,0-0.2,0-0.3c0-0.1,0-0.2-0.1-0.3
	c-0.1,0-0.1,0-0.2,0C14.8,140,13.7,140,13.5,140z M17.7,141.2h0.5c0,0,0,0,0.1,0c0.1,0,0.2-0.1,0.2-0.2c0-0.2,0-0.3-0.3-0.3
	c-0.2,0-0.5,0-0.7,0c-0.2,0-0.4,0-0.6,0.1c-0.1,0-0.1,0-0.2,0c-0.1,0-0.3,0-0.4,0c-0.1,0-0.2,0-0.3-0.1c-0.1-0.1-0.2-0.1-0.3-0.1
	c-0.1,0-0.1,0-0.2,0.1c-0.1,0.2-0.1,0.3,0,0.5c0,0.1,0.1,0.1,0.1,0.1c0.1,0,0.2,0,0.3-0.1c0.1-0.1,0.2-0.1,0.3-0.1
	c0.1,0,0.2,0,0.4,0c0.1,0,0.2,0,0.3,0.1c0.1,0,0.2,0.1,0.3,0.1L17.7,141.2L17.7,141.2z M8,141.2L8,141.2l0.2,0c0.2,0,0.4,0,0.6-0.1
	c0,0,0.1,0,0.1,0c0.2,0,0.3,0,0.5,0c0.1,0,0.2,0,0.2,0.1c0,0,0.1,0.1,0.1,0.1c0.1,0.1,0.2,0.1,0.3,0c0.1,0,0.1-0.1,0.1-0.2
	c0-0.1,0-0.2,0-0.3c0-0.1-0.1-0.2-0.2-0.2c-0.1,0-0.2,0-0.3,0.1c0,0-0.1,0.1-0.2,0.1c-0.3,0-0.5,0-0.8,0c-0.1,0-0.2-0.1-0.3-0.1
	c-0.3,0-0.6,0-0.8,0c-0.1,0-0.1,0-0.2,0c-0.1,0-0.1,0.1-0.1,0.1c0,0.1,0,0.1,0,0.2c0,0.1,0.1,0.2,0.2,0.2
	C7.6,141.2,7.8,141.2,8,141.2L8,141.2L8,141.2z M16.5,56c0,0.3,0,0.5,0,0.8c0,0.1,0.1,0.1,0.1,0.2c0.2,0.1,0.4,0.2,0.6,0.2
	c0.2,0,0.2,0,0.2-0.2c0-0.3,0-0.5,0.1-0.8c0,0,0-0.1,0-0.2C17.2,56,16.8,56,16.5,56L16.5,56L16.5,56z M8.1,56
	C8.1,56.1,8.1,56.1,8.1,56c0,0.4,0,0.7,0.1,1c0,0.1,0.1,0.1,0.1,0.1c0.2,0,0.5,0,0.7-0.2c0.1-0.1,0.1-0.1,0.1-0.3c0-0.2,0-0.4,0-0.5
	c0,0,0-0.1,0-0.2C9,56,9,56,8.9,56c-0.2,0-0.5,0-0.7,0C8.2,56,8.2,56,8.1,56L8.1,56L8.1,56z M15.5,141.9L15.5,141.9
	c0.2,0,0.4,0,0.5,0c0.1,0,0.1,0,0.1-0.1c0-0.1-0.1-0.1-0.1-0.1c-0.4,0-0.7,0-1.1,0c0,0-0.1,0-0.1,0c0,0,0,0.1,0,0.1c0,0,0.1,0,0.1,0
	C15.1,141.9,15.3,141.9,15.5,141.9L15.5,141.9L15.5,141.9z M19.9,141.7L19.9,141.7c-0.2,0-0.3,0-0.5,0c-0.1,0-0.1,0-0.2,0
	c0,0,0,0,0,0.1c0,0,0,0.1,0,0.1c0,0,0.1,0,0.1,0c0.3,0,0.6,0,1,0c0,0,0,0,0.1,0c0.1,0,0.1,0,0.1-0.1c0,0,0-0.1-0.1-0.1
	C20.2,141.7,20.1,141.7,19.9,141.7L19.9,141.7L19.9,141.7z M22.2,141.9L22.2,141.9c0.2,0,0.4,0,0.5,0c0.1,0,0.1,0,0.1-0.1
	c0,0,0-0.1-0.1-0.1c0,0-0.1,0-0.1,0c-0.3,0-0.6,0-0.9,0c0,0-0.1,0-0.1,0c0,0,0,0,0,0.1c0,0,0,0.1,0,0.1c0,0,0.1,0,0.1,0
	C21.9,141.9,22.1,141.9,22.2,141.9L22.2,141.9L22.2,141.9z M3.4,141.7L3.4,141.7c-0.1,0-0.3,0-0.4,0c-0.1,0-0.1,0-0.2,0
	c0,0-0.1,0-0.1,0.1s0,0.1,0.1,0.1c0,0,0.1,0,0.1,0c0.3,0,0.7,0,1,0c0,0,0.1,0,0.1,0c0,0,0.1,0,0.1-0.1c0,0,0-0.1-0.1-0.1
	c-0.1,0-0.1,0-0.2,0C3.7,141.7,3.6,141.7,3.4,141.7L3.4,141.7L3.4,141.7z M5.8,141.9L5.8,141.9c0.2,0,0.3,0,0.5,0
	c0.1,0,0.1,0,0.2-0.1c0-0.1,0-0.1-0.2-0.1c-0.3,0-0.6,0-0.9,0c0,0-0.1,0-0.1,0c0,0-0.1,0-0.1,0.1c0,0,0,0.1,0.1,0.1
	c0.1,0,0.1,0,0.2,0C5.5,141.9,5.6,141.9,5.8,141.9L5.8,141.9L5.8,141.9z M11.6,141.9L11.6,141.9c0.2,0,0.3,0,0.5,0c0,0,0.1,0,0.1,0
	c0,0,0,0,0-0.1s0-0.1,0-0.1c-0.1,0-0.1,0-0.2,0c-0.3,0-0.5,0-0.8,0c0,0-0.1,0-0.1,0c-0.1,0-0.1,0-0.1,0.1c0,0.1,0.1,0.1,0.1,0.1
	c0.1,0,0.1,0,0.2,0L11.6,141.9L11.6,141.9L11.6,141.9z M14,141.7L14,141.7c-0.2,0-0.3,0-0.5,0c0,0-0.1,0-0.1,0c0,0,0,0,0,0.1
	s0,0.1,0,0.1c0,0,0.1,0,0.1,0c0.3,0,0.6,0,0.9,0c0,0,0.1,0,0.1,0c0,0,0.1,0,0.1-0.1c0-0.1,0-0.1-0.1-0.1c0,0-0.1,0-0.2,0
	C14.3,141.7,14.1,141.7,14,141.7L14,141.7L14,141.7z M18.4,141.9L18.4,141.9c0.2,0,0.3,0,0.5,0c0.1,0,0.1,0,0.2-0.1
	c0-0.1-0.1-0.1-0.2-0.1c-0.3,0-0.6,0-0.9,0c0,0-0.1,0-0.1,0c0,0-0.1,0-0.1,0.1c0,0,0,0.1,0.1,0.1c0.1,0,0.1,0,0.2,0
	C18.1,141.9,18.3,141.9,18.4,141.9L18.4,141.9L18.4,141.9z M7.2,141.7L7.2,141.7c-0.1,0-0.3,0-0.4,0c-0.1,0-0.1,0-0.2,0
	c0,0,0,0-0.1,0.1c0,0,0,0,0,0.1c0,0,0.1,0,0.1,0c0.3,0,0.6,0,0.9,0c0.1,0,0.1,0,0.1,0c0,0,0.1-0.1,0-0.1c0,0,0-0.1-0.1-0.1
	c-0.1,0-0.1,0-0.2,0C7.5,141.7,7.4,141.7,7.2,141.7L7.2,141.7L7.2,141.7z M1.9,141.9L1.9,141.9c0.2,0,0.3,0,0.5,0c0,0,0.1,0,0.1,0
	c0,0,0,0,0-0.1c0,0,0-0.1,0-0.1c-0.1,0-0.1,0-0.2,0c-0.3,0-0.5,0-0.8,0c-0.1,0-0.1,0-0.2,0c0,0-0.1,0-0.1,0.1c0,0,0,0.1,0.1,0.1
	c0,0,0.1,0,0.1,0C1.6,141.9,1.8,141.9,1.9,141.9L1.9,141.9L1.9,141.9z M23.7,141.7L23.7,141.7c-0.2,0-0.4,0-0.6,0
	c-0.1,0-0.1,0.1-0.1,0.1c0,0,0,0.1,0.1,0.1c0.1,0,0.1,0,0.2,0c0.1,0,0.3,0,0.4,0c0.2,0,0.3,0,0.5,0c0,0,0.1,0,0.1,0c0,0,0-0.1,0-0.1
	c0,0-0.1,0-0.1,0C24,141.7,23.9,141.7,23.7,141.7L23.7,141.7L23.7,141.7z M10.2,141.7c-0.1,0-0.3,0-0.4,0c-0.1,0-0.1,0-0.2,0
	c0,0,0,0,0,0.1c0,0,0,0.1,0,0.1c0.1,0,0.1,0,0.2,0c0.3,0,0.6,0,0.9,0c0.1,0,0.1,0,0.1,0c0,0,0.1,0,0-0.1c0,0,0-0.1-0.1-0.1
	c-0.1,0-0.1,0-0.2,0C10.4,141.7,10.3,141.7,10.2,141.7L10.2,141.7L10.2,141.7z M4.6,141.9c0.1,0,0.2,0,0.3,0c0,0,0.1,0,0.1-0.1
	c0,0,0-0.1,0-0.1c0,0-0.1,0-0.1,0c-0.1,0-0.1,0-0.2,0c-0.1,0-0.2,0-0.3,0c-0.1,0-0.1,0.1-0.1,0.1c0,0,0,0.1,0.1,0.1
	C4.4,141.9,4.5,141.9,4.6,141.9L4.6,141.9L4.6,141.9z M21,141.9c0.1,0,0.2,0,0.3,0c0,0,0.1,0,0.1-0.1c0,0,0-0.1-0.1-0.1
	c-0.2,0-0.4,0-0.6,0c0,0-0.1,0.1-0.1,0.1c0,0,0,0.1,0.1,0.1C20.9,141.9,21,141.9,21,141.9L21,141.9L21,141.9z M12.8,141.9
	c0.1,0,0.2,0,0.3,0c0,0,0.1-0.1,0-0.1c0,0,0,0-0.1,0c-0.2,0-0.4,0-0.6,0c0,0-0.1,0-0.1,0.1c0,0,0,0.1,0.1,0.1
	C12.6,141.9,12.7,141.9,12.8,141.9L12.8,141.9L12.8,141.9z M17.3,140.6c-0.1,0-0.1-0.1-0.1-0.1c-0.2,0-0.4,0-0.6,0c0,0,0,0,0,0
	c0,0-0.1,0-0.1,0.1c0,0,0,0.1,0.1,0.1c0,0,0.1,0,0.2,0C16.9,140.7,17.1,140.7,17.3,140.6L17.3,140.6L17.3,140.6z M8.4,140.6
	c0.2,0,0.3,0.1,0.5,0.1c0,0,0.1,0,0.2,0c0,0,0,0,0,0c0,0,0.1,0,0.1-0.1c0,0,0-0.1-0.1-0.1C8.8,140.5,8.6,140.5,8.4,140.6L8.4,140.6
	L8.4,140.6z M0.8,139.6c0,0.2-0.1,0.3,0,0.4C0.9,139.9,0.9,139.8,0.8,139.6z M24.8,140c0.1-0.2,0.1-0.3,0-0.4
	C24.7,139.7,24.7,139.8,24.8,140z M16.7,55.5C16.6,55.5,16.6,55.4,16.7,55.5c-0.1-0.1-0.2-0.1-0.2,0c0,0,0,0.1,0,0.1
	C16.6,55.5,16.6,55.5,16.7,55.5L16.7,55.5L16.7,55.5z M8.3,140.1c0,0.1,0,0.1,0,0.1c0,0,0,0.1,0.1,0.1c0,0,0.1,0,0.1,0
	C8.4,140.2,8.4,140.2,8.3,140.1L8.3,140.1z M9.1,55.6C9.1,55.5,9.1,55.5,9.1,55.6c0-0.1,0-0.1,0-0.1C9,55.4,9,55.5,9.1,55.6
	C9,55.5,9,55.5,9.1,55.6L9.1,55.6L9.1,55.6z M17.6,57.3C17.6,57.3,17.6,57.3,17.6,57.3l0-0.1h0V57.3L17.6,57.3L17.6,57.3z
	 M17.4,140.2C17.3,140.2,17.3,140.1,17.4,140.2c-0.1,0-0.1,0-0.1,0C17.3,140.2,17.3,140.2,17.4,140.2
	C17.3,140.2,17.3,140.2,17.4,140.2L17.4,140.2L17.4,140.2z M9.4,26.9C9.4,26.9,9.4,26.9,9.4,26.9C9.3,26.9,9.3,26.9,9.4,26.9
	C9.3,26.9,9.3,27,9.4,26.9C9.4,27,9.4,26.9,9.4,26.9L9.4,26.9L9.4,26.9z M16.6,140.2C16.6,140.2,16.6,140.1,16.6,140.2
	c-0.1-0.1-0.1,0-0.1,0C16.5,140.2,16.5,140.2,16.6,140.2C16.6,140.2,16.6,140.2,16.6,140.2L16.6,140.2L16.6,140.2z M16.4,26.9
	C16.3,26.9,16.3,26.9,16.4,26.9C16.3,26.9,16.3,26.9,16.4,26.9C16.3,26.9,16.3,26.9,16.4,26.9C16.3,26.9,16.3,26.9,16.4,26.9
	L16.4,26.9L16.4,26.9z M8.3,57.3C8.3,57.3,8.3,57.3,8.3,57.3C8.3,57.4,8.3,57.4,8.3,57.3C8.3,57.4,8.3,57.4,8.3,57.3
	C8.3,57.4,8.3,57.4,8.3,57.3L8.3,57.3L8.3,57.3z M9.1,140.2C9.1,140.2,9.1,140.1,9.1,140.2c-0.1,0-0.1,0-0.1,0
	C9,140.2,9.1,140.2,9.1,140.2C9.1,140.2,9.1,140.2,9.1,140.2L9.1,140.2z M8.3,139.9C8.3,139.9,8.3,139.9,8.3,139.9
	C8.3,139.9,8.3,139.9,8.3,139.9C8.3,140,8.3,140,8.3,139.9C8.3,140,8.3,139.9,8.3,139.9z M16.6,139.9
	C16.5,139.9,16.5,139.9,16.6,139.9C16.5,139.9,16.5,139.9,16.6,139.9C16.5,139.9,16.5,140,16.6,139.9
	C16.5,139.9,16.6,139.9,16.6,139.9L16.6,139.9L16.6,139.9z M17.3,139.9C17.3,139.9,17.3,139.9,17.3,139.9
	C17.3,140,17.3,140,17.3,139.9C17.3,139.9,17.4,139.9,17.3,139.9C17.3,139.9,17.3,139.9,17.3,139.9L17.3,139.9L17.3,139.9z
	 M17.8,9.8L17.8,9.8L17.8,9.8L17.8,9.8z M8.3,140.4L8.3,140.4L8.3,140.4C8.3,140.4,8.3,140.4,8.3,140.4z M9.1,139.9
	C9.1,139.9,9.1,139.9,9.1,139.9C9.1,139.9,9.1,139.9,9.1,139.9C9.1,139.9,9.1,140,9.1,139.9C9.1,139.9,9.1,139.9,9.1,139.9
	L9.1,139.9L9.1,139.9z"/>
<path d="M24.6,140c0,0.1,0,0.1,0,0.2c0,0.3,0,0.6,0,0.9c0,0.1,0,0.3-0.1,0.4c0,0.1-0.1,0.1-0.1,0.1c-0.1,0-0.2,0-0.2,0H18
	c-0.1,0-0.2,0-0.3,0c-0.1,0-0.1-0.1-0.1-0.2c0.1,0,0.2,0,0.3,0c0.1,0,0.3,0,0.4,0c0.1,0,0.1,0,0.2-0.1c0.1-0.1,0.1-0.4,0-0.5
	c0-0.1-0.1-0.1-0.2-0.1c-0.1,0-0.2,0-0.3,0c-0.1,0-0.2,0-0.3,0c-0.1,0-0.1,0-0.1-0.1c0-0.1,0-0.3,0-0.4c0-0.1,0-0.1,0.1-0.1
	c0.1,0,0.1,0,0.2,0h2.3c0,0,0.1,0,0.1,0c0.1,0,0.2,0,0.3,0.2c0,0,0,0.1,0,0.1c0.1,0.2,0.2,0.2,0.4,0.2c0,0,0,0,0,0
	c0.1,0,0.1,0,0.2,0c0.2,0.1,0.3,0,0.4-0.2c0.1-0.2,0.2-0.2,0.4-0.2c0.8,0,1.6,0,2.4,0C24.4,140,24.5,140,24.6,140L24.6,140L24.6,140
	z"/>
<path d="M8.1,140c0.1,0.2,0.1,0.4,0,0.5c0,0.1,0,0.1-0.1,0.1c-0.1,0-0.2,0-0.3,0c-0.1,0-0.3,0-0.4,0c-0.1,0-0.2,0.1-0.2,0.2
	c0,0.1,0,0.2,0,0.2c0,0.1,0.1,0.2,0.2,0.2c0.1,0,0.3,0,0.4,0c0.1,0,0.2,0,0.3,0c0,0.2,0,0.2-0.1,0.2c-0.1,0-0.2,0-0.3,0
	c-0.5,0-1,0-1.5,0H1.6c-0.1,0-0.2,0-0.3,0c-0.1,0-0.2,0-0.2-0.1c0-0.1-0.1-0.3-0.1-0.4c0-0.3,0-0.6,0-0.8c0,0,0-0.1,0-0.1
	c0-0.1,0-0.1,0.1-0.1c0.1,0,0.1,0,0.2,0h2.3c0.1,0,0.2,0,0.2,0c0.1,0.1,0.1,0.2,0.2,0.3c0.1,0.2,0.2,0.2,0.4,0.1c0.1,0,0.2,0,0.3,0
	c0.2,0.1,0.3,0,0.4-0.2c0.1-0.3,0.2-0.3,0.4-0.3c0.8,0,1.5,0,2.3,0C7.9,140,8,140,8.1,140L8.1,140L8.1,140z"/>
<path d="M13.5,140c0.2,0,1.4-0.1,2.7,0c0.1,0,0.1,0,0.2,0c0.1,0.1,0.1,0.2,0.1,0.3c0,0.1,0,0.2,0,0.3c0,0.1-0.1,0.2-0.2,0.1
	c-0.1,0-0.1-0.1-0.1-0.1c-0.1-0.1-0.3-0.1-0.4-0.1c-0.1,0-0.1,0.1-0.1,0.1c-0.1,0.2-0.1,0.4,0,0.6c0,0.1,0.1,0.1,0.2,0.1
	c0.2,0,0.3,0,0.4-0.1c0,0,0.1-0.1,0.1-0.1c0.1,0,0.1,0,0.1,0.1c0,0.2-0.1,0.3-0.3,0.3c-0.1,0-0.2,0-0.3,0h-6c-0.1,0-0.1,0-0.2,0
	c-0.2,0-0.2,0-0.3-0.2c0,0,0-0.1,0-0.1c0.1-0.1,0.1-0.1,0.2,0c0,0,0.1,0,0.1,0.1c0.1,0.1,0.2,0.1,0.4,0.1c0.1,0,0.2-0.1,0.3-0.2
	c0-0.2,0-0.3,0-0.5c0-0.1-0.1-0.2-0.3-0.2c-0.1,0-0.3,0-0.4,0.1c0,0,0,0-0.1,0c-0.1,0.1-0.2,0-0.2-0.1c0-0.2,0-0.4,0-0.5
	c0.1-0.1,0.2-0.1,0.3-0.1c0.3,0,0.7,0,1,0h1.3c0.1,0,0.1,0,0.2,0c0.1,0,0.1,0,0.2,0.1c0,0.1,0,0.1,0.1,0.2c0.1,0.2,0.2,0.2,0.4,0.1
	c0.1,0,0.2-0.1,0.3,0c0.2,0.1,0.3,0,0.4-0.1C13.4,140.2,13.4,140.1,13.5,140L13.5,140z"/>
<path d="M17.7,141.2h-0.5c-0.1,0-0.2,0-0.3-0.1c-0.1,0-0.2-0.1-0.3-0.1c-0.1,0-0.2,0-0.4,0c-0.1,0-0.2,0-0.3,0.1
	c-0.1,0.1-0.2,0.1-0.3,0.1c-0.1,0-0.1,0-0.1-0.1c-0.1-0.2-0.1-0.3,0-0.5c0-0.1,0.1-0.1,0.2-0.1c0.1,0,0.2,0,0.3,0.1
	c0.1,0.1,0.2,0.1,0.3,0.1c0.1,0,0.3,0,0.4,0c0.1,0,0.1,0,0.2,0c0.2-0.1,0.4-0.1,0.6-0.1c0.2,0,0.5,0,0.7,0c0.2,0,0.3,0.1,0.3,0.3
	c0,0.1-0.1,0.1-0.2,0.2c0,0,0,0-0.1,0L17.7,141.2L17.7,141.2z"/>
<path d="M8,141.2c-0.2,0-0.4,0-0.6,0c-0.1,0-0.2-0.1-0.2-0.2c0-0.1,0-0.1,0-0.2c0-0.1,0.1-0.1,0.1-0.1c0.1,0,0.1,0,0.2,0
	c0.3,0,0.6,0,0.8,0c0.1,0,0.2,0,0.3,0.1c0.3,0.1,0.5,0,0.8,0c0.1,0,0.1,0,0.2-0.1c0.1-0.1,0.2-0.1,0.3-0.1c0.1,0,0.2,0.1,0.2,0.2
	c0,0.1,0,0.2,0,0.3c0,0.1,0,0.2-0.1,0.2c-0.1,0-0.2,0-0.3,0c0,0-0.1-0.1-0.1-0.1c-0.1-0.1-0.1-0.1-0.2-0.1c-0.2,0-0.3,0-0.5,0
	c0,0-0.1,0-0.1,0c-0.2,0.1-0.4,0.1-0.6,0.1L8,141.2L8,141.2L8,141.2L8,141.2z"/>
<path d="M15.5,141.9c-0.2,0-0.3,0-0.5,0c0,0-0.1,0-0.1,0c0,0,0-0.1,0-0.1c0,0,0.1,0,0.1,0c0.4,0,0.7,0,1.1,0c0,0,0.1,0,0.1,0.1
	c0,0.1,0,0.1-0.1,0.1C15.8,141.9,15.6,141.9,15.5,141.9L15.5,141.9L15.5,141.9L15.5,141.9z"/>
<path d="M19.9,141.7c0.2,0,0.3,0,0.5,0c0.1,0,0.1,0,0.1,0.1c0,0.1-0.1,0.1-0.1,0.1c0,0,0,0-0.1,0c-0.3,0-0.6,0-1,0c0,0-0.1,0-0.1,0
	c0,0,0,0,0-0.1c0,0,0-0.1,0-0.1c0.1,0,0.1,0,0.2,0C19.6,141.7,19.8,141.7,19.9,141.7L19.9,141.7L19.9,141.7z"/>
<path d="M22.2,141.9c-0.2,0-0.3,0-0.5,0c0,0-0.1,0-0.1,0c0,0,0,0,0-0.1c0,0,0-0.1,0-0.1c0,0,0.1,0,0.1,0c0.3,0,0.6,0,0.9,0
	c0,0,0.1,0,0.1,0c0.1,0,0.1,0,0.1,0.1c0,0.1-0.1,0.1-0.1,0.1C22.6,141.9,22.4,141.9,22.2,141.9L22.2,141.9L22.2,141.9L22.2,141.9z"
	/>
<path d="M3.4,141.7c0.1,0,0.3,0,0.4,0c0.1,0,0.1,0,0.2,0c0,0,0.1,0,0.1,0.1c0,0,0,0.1-0.1,0.1c0,0-0.1,0-0.1,0c-0.3,0-0.7,0-1,0
	c0,0-0.1,0-0.1,0c0,0-0.1,0-0.1-0.1c0,0,0-0.1,0.1-0.1c0.1,0,0.1,0,0.2,0C3.1,141.7,3.3,141.7,3.4,141.7L3.4,141.7L3.4,141.7z"/>
<path d="M5.8,141.9c-0.1,0-0.3,0-0.4,0c-0.1,0-0.1,0-0.2,0c0,0-0.1,0-0.1-0.1c0,0,0-0.1,0.1-0.1c0,0,0.1,0,0.1,0c0.3,0,0.6,0,0.9,0
	c0.1,0,0.2,0,0.2,0.1c0,0.1-0.1,0.1-0.2,0.1C6.1,141.9,5.9,141.9,5.8,141.9L5.8,141.9L5.8,141.9L5.8,141.9z"/>
<path d="M11.6,141.9h-0.4c-0.1,0-0.1,0-0.2,0c-0.1,0-0.1,0-0.1-0.1c0,0,0-0.1,0.1-0.1c0,0,0.1,0,0.1,0c0.3,0,0.5,0,0.8,0
	c0.1,0,0.1,0,0.2,0c0,0,0,0,0,0.1c0,0,0,0.1,0,0.1c0,0-0.1,0-0.1,0C12,141.9,11.8,141.9,11.6,141.9L11.6,141.9L11.6,141.9z"/>
<path d="M14,141.7c0.1,0,0.3,0,0.4,0c0.1,0,0.1,0,0.2,0c0,0,0.1,0,0.1,0.1c0,0,0,0.1-0.1,0.1c0,0-0.1,0-0.1,0c-0.3,0-0.6,0-0.9,0
	c0,0-0.1,0-0.1,0c0,0,0,0,0-0.1s0-0.1,0-0.1c0,0,0.1,0,0.1,0C13.7,141.7,13.8,141.7,14,141.7L14,141.7L14,141.7L14,141.7z"/>
<path d="M18.4,141.9c-0.1,0-0.3,0-0.4,0c-0.1,0-0.1,0-0.2,0c0,0-0.1,0-0.1-0.1c0,0,0-0.1,0.1-0.1c0,0,0.1,0,0.1,0c0.3,0,0.6,0,0.9,0
	c0.1,0,0.2,0,0.2,0.1c0,0.1-0.1,0.1-0.2,0.1C18.7,141.9,18.6,141.9,18.4,141.9L18.4,141.9L18.4,141.9L18.4,141.9z"/>
<path d="M7.2,141.7c0.1,0,0.3,0,0.4,0c0.1,0,0.1,0,0.2,0c0,0,0.1,0,0.1,0.1c0,0,0,0.1,0,0.1c0,0-0.1,0-0.1,0c-0.3,0-0.6,0-0.9,0
	c0,0-0.1,0-0.1,0c0,0,0,0,0-0.1c0,0,0-0.1,0.1-0.1c0.1,0,0.1,0,0.2,0C7,141.7,7.1,141.7,7.2,141.7L7.2,141.7L7.2,141.7L7.2,141.7z"
	/>
<path d="M1.9,141.9c-0.1,0-0.3,0-0.4,0c-0.1,0-0.1,0-0.1,0c0,0-0.1,0-0.1-0.1c0,0,0-0.1,0.1-0.1c0.1,0,0.1,0,0.2,0
	c0.3,0,0.5,0,0.8,0c0.1,0,0.1,0,0.2,0c0,0,0,0,0,0.1s0,0.1,0,0.1c0,0-0.1,0-0.1,0C2.2,141.9,2.1,141.9,1.9,141.9L1.9,141.9
	L1.9,141.9L1.9,141.9z"/>
<path d="M23.7,141.7c0.2,0,0.3,0,0.5,0c0,0,0.1,0,0.1,0c0,0,0,0.1,0,0.1c0,0-0.1,0-0.1,0c-0.2,0-0.3,0-0.5,0c-0.1,0-0.3,0-0.4,0
	c-0.1,0-0.1,0-0.2,0c0,0-0.1,0-0.1-0.1c0,0,0-0.1,0.1-0.1C23.4,141.7,23.5,141.7,23.7,141.7L23.7,141.7L23.7,141.7L23.7,141.7z"/>
<path d="M10.2,141.7c0.1,0,0.3,0,0.4,0c0.1,0,0.1,0,0.2,0c0,0,0.1,0,0.1,0.1s0,0.1,0,0.1c0,0-0.1,0-0.1,0c-0.3,0-0.6,0-0.9,0
	c-0.1,0-0.1,0-0.2,0c0,0,0,0,0-0.1c0,0,0-0.1,0-0.1c0.1,0,0.1,0,0.2,0C9.9,141.7,10,141.7,10.2,141.7L10.2,141.7L10.2,141.7z"/>
<path d="M4.6,141.9c-0.1,0-0.2,0-0.3,0c0,0-0.1,0-0.1-0.1c0,0,0-0.1,0.1-0.1c0.1,0,0.2,0,0.3,0c0.1,0,0.1,0,0.2,0c0,0,0.1,0,0.1,0
	c0,0,0.1,0.1,0,0.1c0,0,0,0.1-0.1,0.1C4.8,141.9,4.7,141.9,4.6,141.9L4.6,141.9L4.6,141.9z"/>
<path d="M21,141.9c-0.1,0-0.2,0-0.3,0c0,0-0.1,0-0.1-0.1c0,0,0-0.1,0.1-0.1c0.2,0,0.4,0,0.6,0c0,0,0.1,0.1,0.1,0.1
	c0,0,0,0.1-0.1,0.1C21.2,141.9,21.2,141.9,21,141.9L21,141.9L21,141.9z"/>
<path d="M12.8,141.9c-0.1,0-0.2,0-0.3,0c0,0-0.1,0-0.1-0.1c0,0,0-0.1,0.1-0.1c0.2,0,0.4,0,0.6,0c0,0,0,0,0.1,0c0,0,0,0.1,0,0.1
	C13,141.9,12.9,141.9,12.8,141.9L12.8,141.9L12.8,141.9z"/>
<path d="M17.3,140.6c-0.2,0-0.4,0.1-0.6,0.1c0,0-0.1,0-0.2,0c0,0-0.1,0-0.1-0.1c0,0,0-0.1,0.1-0.1c0,0,0,0,0,0c0.2,0,0.4,0,0.6,0
	C17.3,140.5,17.3,140.6,17.3,140.6L17.3,140.6L17.3,140.6z"/>
<path d="M8.4,140.6c0.2-0.1,0.4-0.1,0.7-0.1c0,0,0.1,0,0.1,0.1c0,0,0,0.1-0.1,0.1c0,0,0,0,0,0c-0.1,0-0.1,0-0.2,0
	C8.7,140.7,8.5,140.7,8.4,140.6L8.4,140.6L8.4,140.6z"/>
<path d="M0.8,139.6c0.1,0.3,0.1,0.3,0,0.4C0.8,139.8,0.8,139.7,0.8,139.6z"/>
<path d="M24.8,140c-0.1-0.2,0-0.3,0-0.4C24.8,139.7,24.8,139.8,24.8,140z"/>
<path class="st0" d="M16.7,55.5c-0.1,0-0.1,0-0.1,0c0,0,0,0,0-0.1C16.5,55.4,16.5,55.4,16.7,55.5C16.6,55.4,16.6,55.5,16.7,55.5
	L16.7,55.5L16.7,55.5z"/>
<path d="M8.3,140.1c0,0.1,0.1,0.1,0.1,0.1c0,0,0,0-0.1,0c0,0-0.1,0-0.1-0.1C8.3,140.2,8.3,140.1,8.3,140.1L8.3,140.1z"/>
<path class="st0" d="M9.1,55.6C9,55.5,9,55.5,9.1,55.6c0-0.1,0-0.1,0-0.1C9.1,55.4,9.1,55.5,9.1,55.6C9.1,55.5,9.1,55.5,9.1,55.6
	L9.1,55.6L9.1,55.6z"/>
<path class="st0" d="M17.6,57.3v-0.1h0L17.6,57.3C17.6,57.3,17.6,57.3,17.6,57.3L17.6,57.3L17.6,57.3z"/>
<path d="M17.4,140.2C17.4,140.2,17.3,140.2,17.4,140.2c-0.1,0.1-0.1,0-0.1,0C17.3,140.2,17.3,140.1,17.4,140.2
	C17.3,140.1,17.4,140.2,17.4,140.2L17.4,140.2L17.4,140.2z"/>
<path d="M9.4,26.9C9.4,26.9,9.4,27,9.4,26.9C9.3,27,9.3,26.9,9.4,26.9C9.3,26.9,9.3,26.9,9.4,26.9C9.4,26.9,9.4,26.9,9.4,26.9
	L9.4,26.9L9.4,26.9z"/>
<path d="M16.6,140.2C16.6,140.2,16.6,140.2,16.6,140.2c-0.1,0-0.1,0-0.1,0C16.5,140.2,16.6,140.1,16.6,140.2
	C16.6,140.1,16.6,140.2,16.6,140.2L16.6,140.2L16.6,140.2z"/>
<path d="M16.4,26.9C16.3,26.9,16.3,26.9,16.4,26.9C16.3,26.9,16.3,26.9,16.4,26.9C16.3,26.9,16.3,26.9,16.4,26.9
	C16.3,26.9,16.3,26.9,16.4,26.9L16.4,26.9L16.4,26.9z"/>
<path class="st0" d="M8.3,57.3C8.3,57.4,8.3,57.4,8.3,57.3C8.3,57.4,8.3,57.4,8.3,57.3C8.3,57.4,8.3,57.4,8.3,57.3
	C8.3,57.3,8.3,57.3,8.3,57.3L8.3,57.3L8.3,57.3z"/>
<path d="M9.1,140.2C9.1,140.2,9.1,140.2,9.1,140.2c-0.1,0-0.1,0-0.1,0C9,140.2,9.1,140.1,9.1,140.2C9.1,140.1,9.1,140.2,9.1,140.2
	L9.1,140.2z"/>
<path d="M8.3,139.9C8.3,139.9,8.3,140,8.3,139.9C8.3,140,8.3,140,8.3,139.9C8.3,139.9,8.3,139.9,8.3,139.9
	C8.3,139.9,8.3,139.9,8.3,139.9z"/>
<path d="M16.6,139.9C16.6,139.9,16.5,139.9,16.6,139.9C16.5,140,16.5,139.9,16.6,139.9C16.5,139.9,16.5,139.9,16.6,139.9
	C16.5,139.9,16.5,139.9,16.6,139.9L16.6,139.9L16.6,139.9z"/>
<path d="M17.3,139.9C17.3,139.9,17.3,139.9,17.3,139.9C17.4,139.9,17.3,139.9,17.3,139.9C17.3,140,17.3,140,17.3,139.9
	C17.3,139.9,17.3,139.9,17.3,139.9L17.3,139.9L17.3,139.9z"/>
<polygon points="17.8,9.8 17.8,9.8 17.8,9.8 "/>
<path d="M8.3,140.4C8.3,140.4,8.3,140.4,8.3,140.4L8.3,140.4C8.3,140.4,8.3,140.4,8.3,140.4z"/>
<path d="M9.1,139.9C9.1,139.9,9.1,139.9,9.1,139.9C9.1,140,9.1,139.9,9.1,139.9C9.1,139.9,9.1,139.9,9.1,139.9
	C9.1,139.9,9.1,139.9,9.1,139.9L9.1,139.9L9.1,139.9z"/>
</svg>
