<?xml version="1.0" encoding="UTF-8"?><svg id="Layer_1" xmlns="http://www.w3.org/2000/svg" viewBox="0 0 258.87 1457.12"><path d="M222.8,1454.41c-.13,.69-.26,1.43-.43,2.31-.57,.13-1.14,.38-1.7,.38-5.27,.03-10.54,.02-15.81,.02-.17,0-.35-.01-.52-.03-1.07-.12-1.32-.33-1.54-1.39-.09-.41-.12-.84-.17-1.16-.84-.73-1.74-.57-2.58-.58-3.11-.03-6.22-.02-9.33-.02-3.8,0-7.61,0-11.41-.01-.94,0-1.88-.07-2.63-.1-.76-.72-.75-1.39-.57-2.09,.48-1.93,.81-3.91,1.47-5.77,1.19-3.33,2.58-6.6,3.89-9.89,.28-.71,.56-1.41,.91-2.27-.59-.26-1.05-.63-1.48-.62-1.9,.07-2.81-.93-3.3-2.64-.26-.9-.79-1.72-1.19-2.59-.32-.7-.87-1.09-1.63-1.06-1.67,.07-3.21-.3-4.74-1.02-1.1-.52-2.35-.54-3.58,.1-.77,1.69-1.62,3.39-2.31,5.16-.5,1.3-1.28,1.96-2.68,2-.56,.01-1.11,.28-1.68,.44-.12,1.08,.37,1.81,.75,2.57,2.19,4.44,3.73,9.11,5.04,13.87,1.15,4.17,.05,3.91-2.95,3.91-6.65,0-13.31,0-19.96,.02-1.01,0-2.08-.19-3.11,.55-.13,.68-.27,1.42-.43,2.28-.61,.12-1.18,.32-1.76,.32-5.27,.02-10.54,.02-15.81,0-.51,0-1.02-.13-1.66-.22-.2-.82-.39-1.63-.58-2.41-.66-.64-1.47-.53-2.23-.53-2.25-.02-4.49,0-6.74,0-4.84,0-9.68,0-14.52-.01-.93,0-1.9,.17-2.75-.27-.56-.68-.34-1.39-.18-2.03,1.19-4.97,2.62-9.86,4.91-14.46,.39-.77,.79-1.54,1.1-2.35,.14-.37,.08-.81,.12-1.32-.6-.15-1.09-.37-1.58-.36-1.55,.02-2.32-.82-2.83-2.18-.52-1.37-1.24-2.66-1.79-4.02-.38-.92-1-1.35-1.97-1.38-.96-.03-1.92,0-2.75,.55-.99,.64-2.08,.86-3.22,.74-1.56-.16-2.41,.63-2.92,1.99-.3,.81-.68,1.59-.98,2.4-.43,1.18-1.17,1.9-2.5,1.86-.26,0-.52,.02-.78,.06-1.18,.18-1.41,.62-.89,1.8,.9,2.06,1.81,4.12,2.71,6.18,1.42,3.27,2.32,6.69,3.08,10.16,.07,.34,.14,.68,.17,1.02,.12,1.06-.2,1.5-1.2,1.57-.86,.06-1.73,.06-2.59,.06-6.4,0-12.79,0-19.19,.01-1.1,0-2.25-.19-3.34,.49-.19,.7-.38,1.43-.61,2.29-.6,.13-1.17,.35-1.74,.36-5.18,.03-10.37,.02-15.56,.02-.34,0-.69-.04-1.03-.09-.59-.08-.92-.46-1.03-1.01-.1-.5-.16-1.01-.23-1.45-.85-.84-1.86-.59-2.77-.6-5.1-.03-10.2-.02-15.3-.02-1.99,0-3.98,.02-5.96,0-.76,0-1.51-.13-2.12-.18-.7-.89-.45-1.68-.27-2.42,.95-3.77,1.81-7.57,3.43-11.14,.78-1.73,1.56-3.47,2.32-5.21,.16-.38,.25-.79,.42-1.35-.57-.19-1.03-.49-1.49-.48-1.71,.04-2.51-.78-3.24-2.35-1.63-3.47-2.31-7.02-2.11-10.82,.08-1.43-.02-1.44-.68-2.64-.08-.02-.19-.08-.25-.05-1.75,.8-3.12,.12-4.44-1.03-2.42-2.12-3.6-4.86-3.77-7.99-.12-2.33,.07-4.67,.14-7,.02-.78,.12-1.55,.15-2.33,.37-11.24,.73-22.48,1.1-33.72,.31-9.42,.64-18.84,.94-28.27,.25-7.87,.46-15.74,.72-23.6,.23-6.83,.51-13.66,.76-20.48,.02-.52,.06-1.04,.08-1.56,.24-7.78,.46-15.56,.71-23.34,.24-7.44,.51-14.87,.77-22.3,.16-4.58,.35-9.16,.43-13.75,.08-4.38,1.16-8.57,2.4-12.7,.63-2.1,.96-4.19,.96-6.37-.01-24.48,0-48.97,0-73.45,0-34,0-68,0-102,0-33.91,0-67.83,0-101.74,0-34.17,0-68.35,0-102.52,0-31.84,0-63.68,0-95.51,0-37.46,0-74.92,0-112.38,0-1.55,.15-3.11-.27-4.52-.23-.21-.33-.38-.48-.43-2.27-.75-2.31-.74-2.32-2.99-.02-9.08,0-18.17-.01-27.25,0-1.17,.27-2.2,.98-3.14,.47-.62,.8-1.33,1.23-1.98,.59-.89,.84-1.88,.94-2.93,.7-7.15,1.3-14.3,2.17-21.43,1.25-10.29,3.76-20.21,8.96-29.32,2.53-4.43,5.02-8.89,8.12-12.95,2.84-3.71,5.89-7.2,9.84-9.86,3.46-2.34,7.18-2.79,11.15-2.11,.75,.13,1.47,.49,2.17,.81,3.77,1.75,6.76,4.51,9.39,7.63,6.68,7.94,11.78,16.84,15.56,26.49,1.71,4.37,2.58,8.96,3.45,13.55,.24,1.27,.39,2.56,.63,3.84,.13,.67,.38,1.31,.54,1.86,1.08,.58,1.99,.41,2.85-.09,1.04-.61,2.06-1.26,3.08-1.91,1.45-.92,2.73-2.18,4.71-1.95,.17-.79,.35-1.35,.4-1.93,.07-.77,.03-1.56,.03-2.33,0-81.93,0-163.86,0-245.79,0-10.21-.04-20.42,.03-30.63,.01-2.24-.51-4.19-1.61-6.15-3.82-6.78-7.51-13.63-11.26-20.45-.52-.94-.79-1.91-.82-2.96-.16-4.75-.47-9.51-.48-14.26-.04-40.66-.02-81.32-.02-121.99,0-6.66,.03-13.33,.72-19.96,.69-6.62,1.65-13.21,2.86-19.76,1.16-6.31,2.8-12.48,4.79-18.57,2.37-7.26,5.51-14.19,9.46-20.72,4.39-7.27,9.46-14.05,15.2-20.32,1.57-1.72,3.2-3.4,4.89-5,2.55-2.41,5.46-4.29,8.89-5.13,6.57-1.62,12.29,.17,17.3,4.57,3.46,3.03,6.49,6.46,9.4,10,3.4,4.14,6.6,8.45,9.5,12.97,5.12,7.98,9.03,16.51,11.93,25.54,2.6,8.1,4.35,16.37,5.52,24.78,1.3,9.34,2.03,18.73,2.02,28.18-.04,42.05,0,84.09-.04,126.14,0,4.32-.3,8.64-.43,12.97-.05,1.51-.48,2.87-1.21,4.19-3.8,6.88-7.57,13.79-11.38,20.67-.82,1.48-1.25,2.99-1.24,4.69,.03,6.83,0,13.67,0,20.5,0,44.47,.02,88.94,.02,133.41,0,39.62-.01,79.25-.02,118.87,0,1.9,0,3.81,.03,5.71,.01,.85-.03,1.73,.47,2.5,.92,.33,1.84,.57,2.67,.99,.84,.43,1.58,1.05,2.39,1.56,.87,.55,1.76,1.1,2.66,1.6,.95,.53,1.94,.67,3.13,.01,.19-.99,.44-2.07,.62-3.17,1.01-6.06,2.15-12.1,4.57-17.79,1.32-3.1,2.73-6.17,4.34-9.12,2.6-4.79,5.53-9.39,8.92-13.67,2.37-2.99,4.98-5.73,8.14-7.93,3.03-2.12,6.32-3.08,10.02-2.66,1.76,.2,3.37,.74,4.88,1.62,2.56,1.49,4.84,3.33,6.85,5.5,2.35,2.54,4.5,5.25,6.42,8.14,3.49,5.27,6.62,10.75,9.22,16.52,2.4,5.32,3.91,10.93,4.74,16.67,1.14,7.96,1.92,15.97,2.84,23.96,.13,1.12,.28,2.24,.28,3.36,0,1.63,.46,3.1,1.47,4.33,1.11,1.36,1.4,2.88,1.39,4.59-.04,8.74-.02,17.48-.03,26.21,0,.26-.02,.52,0,.78,.06,1.29-.41,2.17-1.77,2.44-.23,.04-.43,.25-.81,.49-.06,1.03-.17,2.13-.17,3.24-.01,15.05-.01,30.11-.01,45.16,0,39.19,0,78.38,0,117.57,0,39.28,0,78.56,0,117.83,0,39.36,0,78.73,0,118.09,0,39.1,0,78.21,0,117.31,0,23.79,.02,47.58-.03,71.37,0,3.33,.38,6.52,1.44,9.69,1.24,3.7,1.87,7.52,1.96,11.46,.23,10.03,.58,20.06,.92,30.09,.24,7,.57,14,.82,21,.23,6.48,.4,12.97,.63,19.45,.29,8.39,.62,16.77,.91,25.15,.08,2.25,.08,4.5,.15,6.75,.28,8.39,.58,16.77,.86,25.16,.21,6.31,.37,12.62,.59,18.93,.31,8.73,.63,17.46,.99,26.19,.11,2.72-.09,5.35-1.33,7.83-.83,1.66-1.95,3.02-3.54,4.04-.95,.61-1.84,.91-2.9,.38-.21-.1-.5-.06-.7-.07-.69,.37-.74,.99-.76,1.6-.03,1.3-.06,2.6-.03,3.89,.07,2.4-.49,4.62-1.61,6.74-.52,.98-.83,2.11-1.49,2.98-.68,.92-1.96,.42-2.92,.77-.47,.17-.75,.55-.6,1,.29,.9,.63,1.8,1.07,2.64,2.29,4.41,3.65,9.14,4.81,13.94,.02,.08,.04,.17,.06,.25,.48,2.35,.17,2.8-2.23,2.81-6.91,.03-13.83,0-20.74,.02-1.02,0-2.08-.17-3.14,.47Zm-48.11-870.94c-2.45-.49-4.72-.18-6.96,.53-.84,.26-1.3,.89-1.29,1.75,.03,1.2,0,2.44,.31,3.58,.3,1.1,.52,2.17,.51,3.3-.04,6.75-.07,13.5-.13,20.24,0,.77,.04,1.61-.23,2.31-.55,1.42-.55,2.88-.55,4.34-.01,3.2-.02,6.4-.02,9.6,0,23.62,0,47.24,0,70.85,0,23.53,0,47.06,0,70.59,0,23.36,0,46.72,0,70.07,0,23.53-.01,47.06-.01,70.59,0,23.44,.01,46.89,.01,70.33,0,28.9-.01,57.79-.01,86.69,0,23.36,0,46.72,.01,70.07,0,24.83,.01,49.66,0,74.49,0,2.28,.28,4.46,1.06,6.61,1.55,4.26,2.24,8.7,2.37,13.23,.21,7.09,.43,14.18,.66,21.27,.02,.76,.1,1.52,.16,2.28,.39-.25,.57-.54,.6-.84,.15-1.46,.31-2.93,.36-4.39,.27-6.57,.48-13.14,.75-19.71,.17-4,.84-7.92,2.18-11.69,.83-2.32,1.13-4.68,1.12-7.13-.03-7.87,0-15.75,0-23.62,0-44.21-.01-88.42-.01-132.62,0-44.47,.01-88.93,.01-133.4,0-49.57-.01-99.14-.01-148.71,0-44.47,0-88.93,.01-133.4,0-5.54,0-11.07,0-16.61,0-1.2,.13-2.43-.46-3.64-.75-.29-1.53-.59-2.47-.95-.07-.96-.19-1.89-.19-2.83-.02-8.56,0-17.13-.04-25.69,0-1.79,.31-3.41,1.38-4.88,.49-.67,1.1-1.36,.87-2.62Zm-86.42,671.97c.06-.93,.16-1.86,.18-2.8,.17-6.23,.41-12.45,.45-18.68,.03-4.91,.84-9.65,2.43-14.26,.72-2.08,1.02-4.17,1.01-6.36-.03-11.51-.02-23.01-.02-34.52,0-54.85,0-109.69,0-164.54,0-54.93,0-109.87,0-164.8,0-54.93,0-109.87,0-164.8,0-21.8,0-43.6,0-65.4,0-1.12-.1-2.24-.2-3.36-.11-1.2-.37-2.39-.39-3.59-.08-6.49-.13-12.98-.13-19.46,0-1.11,.31-2.21,.42-3.32,.12-1.2,.21-2.4,.27-3.6,.05-1.09-.49-1.78-1.56-2.08-2.1-.59-4.23-.83-6.4-.52-.15,.02-.28,.18-.46,.3-.26,.74,.16,1.35,.57,1.87,1.41,1.82,1.66,3.88,1.64,6.11-.06,7.96-.02,15.92-.01,23.87,0,.61-.05,1.21,0,1.82,.13,1.63-.54,2.64-2.17,2.98-.14,.03-.24,.23-.53,.52-.05,.92-.16,2.03-.17,3.14-.02,4.5,0,9,0,13.5,0,28.81,0,57.61,0,86.42,0,28.72,0,57.44,0,86.16,0,28.89,0,57.79,0,86.68,0,28.55,0,57.1,0,85.64,0,28.98,0,57.96,0,86.94,0,28.81,0,57.61,0,86.42,0,19.12,.01,38.24,0,57.36,0,1.84,.2,3.63,.77,5.36,1.68,5.04,2.69,10.19,2.66,15.52,0,1.64,.12,3.28,.19,4.93,.18,4.58,.34,9.16,.54,13.74,.04,.93-.02,1.9,.93,2.76Zm159.89,157.99c-.93-.06-1.77-.16-2.62-.16-7.95-.01-15.9,.04-23.84-.04-1.89-.02-3,.51-3.7,2.39-.83,2.24-2.07,2.66-4.29,1.77-.78-.31-1.47-.45-2.21-.04-.15,.08-.3,.17-.47,.23-1.76,.59-2.98,.05-3.79-1.66-.15-.31-.28-.64-.38-.97-.37-1.29-1.25-1.78-2.54-1.69-.34,.03-.69,0-1.04,0-7.86,0-15.72,0-23.59,0-.6,0-1.21,0-1.81,.07-.88,.09-1.29,.43-1.34,1.28-.07,1.29-.07,2.59,0,3.88,.04,.85,.48,1.28,1.3,1.34,1.12,.09,2.24,.07,3.36,.11,1.12,.03,2.25,.03,3.36,.11,.69,.05,1.35,.28,1.8,.89,.74,1.01,.7,3.97-.1,4.95-.46,.57-1.05,.88-1.79,.89-1.3,.01-2.59,0-3.89,.04-.93,.03-1.9-.17-2.78,.28-.08,1.47,.15,1.99,1.14,2.16,.85,.14,1.72,.18,2.58,.18,20.73,0,41.47,0,62.2,0,.78,0,1.55-.06,2.33-.13,.65-.05,1.1-.41,1.4-1,.68-1.33,1.09-2.76,1.14-4.23,.09-2.94,.06-5.88,.02-8.82,0-.57-.27-1.13-.46-1.85Zm-166.32-.03c-1.09-.05-2.03-.13-2.96-.13-7.77,0-15.54-.02-23.31,0-2.49,0-2.92-.32-4.04,2.58-.76,1.96-2,2.42-3.93,1.62-.95-.39-1.71-.47-2.69-.04-1.9,.85-3.03,.36-4.01-1.5-.44-.83-.62-1.81-1.61-2.56-.67-.03-1.52-.1-2.38-.1-7.86,0-15.71,0-23.57,0-.6,0-1.21,0-1.81,.07-.85,.09-1.18,.44-1.32,1.33-.04,.26-.07,.52-.07,.77,0,2.85-.09,5.71,.06,8.55,.07,1.35,.56,2.69,.95,4.01,.28,.91,1,1.37,1.97,1.4,1.12,.03,2.24,.08,3.36,.08,15.02,0,30.04,0,45.06,0,5.09,0,10.19,0,15.28,0,.95,0,1.9-.03,2.84-.16,1.02-.14,1.21-.51,1.35-2.14-.86-.46-1.82-.31-2.75-.33-1.29-.03-2.59,.03-3.88-.04-1.52-.08-2.23-.74-2.39-2.19-.09-.77-.09-1.56-.02-2.33,.13-1.4,.68-2.04,2.1-2.19,1.37-.15,2.76-.1,4.14-.14,.95-.03,1.9-.05,2.84-.13,.57-.05,.97-.44,1.06-.99,.27-1.71,.38-3.41-.28-5.43Zm54.04,.21c-.36,.76-.73,1.63-1.18,2.45-.89,1.63-2.19,2.19-3.88,1.43-1.07-.47-1.9-.39-2.93,.07-1.59,.7-2.83,.17-3.7-1.35-.3-.52-.53-1.09-.75-1.65-.32-.82-.89-1.25-1.77-1.26-.69-.01-1.38-.03-2.07-.03-4.49,0-8.98,0-13.48,0-3.28,0-6.57-.01-9.85,.01-.84,0-1.74-.17-2.57,.57-.5,1.68-.26,3.5-.22,5.29,.04,1.57,1.14,2.09,2.46,1.24,.22-.14,.44-.29,.6-.49,.95-1.16,2.25-1.16,3.56-1.09,1.48,.09,2.41,.81,2.76,2.27,.38,1.62,.36,3.27-.07,4.88-.37,1.39-1.15,1.91-2.64,2.02-1.45,.11-2.75-.12-3.7-1.37-.2-.27-.46-.53-.75-.71-.56-.35-1.13-.41-1.75,.22,.03,.33-.01,.77,.11,1.16,.54,1.69,1,2.04,2.78,2.16,.69,.05,1.38,.04,2.07,.04,20.21,0,40.43,0,60.64,0,.86,0,1.73,0,2.59-.06,1.68-.14,2.55-1.1,2.7-2.88,.04-.53-.45-.95-1.01-.92-.67,.04-1.13,.42-1.49,.92-1.13,1.59-2.75,1.58-4.43,1.4-.85-.09-1.46-.56-1.77-1.34-.8-2-.9-4.06-.07-6.06,.24-.59,.79-1.3,1.35-1.46,1.49-.43,3.05-.68,4.4,.54,.44,.4,.92,.8,1.46,1.05,1,.47,1.97-.09,2.05-1.18,.08-1.12,.08-2.25,.06-3.37-.02-.84,.17-1.74-.59-2.65-.62-.06-1.37-.17-2.13-.18-12.92-.28-24.39-.14-26.79,.33Zm42.65,12.06h0c1.73,0,3.45,0,5.18,0,.17,0,.35,0,.52-.02,1.11-.11,1.62-.52,1.74-1.54,.26-2.35-.3-3.32-2.68-3.34-2.42-.01-4.83,0-7.25-.02-1.9-.01-3.79-.02-5.6,.76-.53,.23-1.18,.24-1.78,.26-1.38,.04-2.76,0-4.14,.02-1.07,.01-2.05-.2-2.82-1.03-.93-.99-2.12-1.04-3.36-.87-.74,.1-1.29,.5-1.55,1.21-.62,1.7-.58,3.39,.16,5.04,.26,.59,.78,.89,1.43,.98,1.28,.18,2.41-.08,3.21-1.19,.79-1.09,1.86-1.44,3.16-1.38,1.21,.05,2.42,.03,3.62,0,.97-.01,1.9,.11,2.75,.58,.87,.48,1.8,.55,2.76,.55,1.55,0,3.11,0,4.66,0Zm-98.26-.03s0,.02,0,.03c.69,0,1.38,0,2.07,0,2.14-.02,4.32,.23,6.31-.92,.35-.2,.84-.18,1.27-.19,1.55-.02,3.1,0,4.66-.02,.92,0,1.68,.28,2.29,.99,.28,.33,.58,.64,.89,.94,.94,.87,2.08,.81,3.17,.48,.95-.29,1.2-1.21,1.24-2.09,.05-1.11,.06-2.25-.07-3.35-.12-1.05-.69-1.52-1.7-1.66-1.24-.16-2.39-.04-3.38,.88-.42,.4-.99,.85-1.52,.89-2.57,.16-5.15,.46-7.7-.28-1.06-.31-2.18-.54-3.28-.57-2.84-.08-5.69-.04-8.54-.02-.6,0-1.21,.05-1.8,.16-.75,.14-1.22,.64-1.33,1.4-.07,.51-.09,1.03-.06,1.55,.09,1.22,.54,1.72,1.78,1.76,1.9,.06,3.79,.02,5.69,.02Zm86.36-860.01c-.43,2.78-.31,5.28-.16,7.77,.05,.85,.62,1.39,1.3,1.83,1.88,1.2,3.91,1.79,6.15,1.66,1.72-.09,2.18-.45,2.34-2.1,.25-2.58,.45-5.17,.61-7.76,.03-.46-.21-.94-.35-1.54-3.28-.22-6.44-.36-9.89,.14Zm-84.52,.17c-.12,.28-.26,.44-.25,.59,.28,3.09,.55,6.18,.88,9.26,.09,.8,.73,1.11,1.48,1.2,2.41,.29,4.62-.26,6.68-1.52,.98-.6,1.44-1.42,1.42-2.57-.03-1.81,0-3.63-.03-5.44-.01-.5-.2-.99-.32-1.56-.63-.14-1.2-.38-1.78-.39-2.33-.03-4.65-.01-6.98,.04-.4,0-.79,.27-1.1,.38Zm74.05,866.39s0-.03,0-.04c1.8,0,3.6,.03,5.4-.01,.83-.02,1.3-.49,1.2-1.02-.12-.66-.66-.77-1.17-.77-3.6-.02-7.2-.02-10.8,0-.32,0-.66,.17-.96,.31-.31,.15-.33,1-.02,1.12,.46,.19,.96,.38,1.45,.39,1.63,.05,3.26,.02,4.89,.02Zm44.77-1.87s0-.04,0-.06c-1.55,0-3.09-.02-4.64,.01-.59,.01-1.19,.13-1.76,.28-.18,.05-.38,.36-.39,.57-.02,.21,.12,.57,.29,.64,.46,.2,.96,.4,1.45,.4,3.26,.03,6.53,.01,9.8,0,.17,0,.34-.02,.51-.05,.52-.09,1-.26,1.16-.85,.13-.47-.37-.92-1.26-.95-1.72-.05-3.44-.01-5.15-.01Zm23.25,1.87s0-.02,0-.03c1.8,0,3.6,.02,5.4-.01,.59-.01,1.22-.13,1.4-.87,.11-.47-.38-.83-1.28-.94-.25-.03-.51-.06-.77-.06-3.09,0-6.17-.01-9.26,.02-.5,0-1.02,.13-1.5,.29-.18,.06-.38,.37-.39,.57-.01,.21,.14,.55,.31,.63,.46,.2,.96,.38,1.46,.39,1.54,.05,3.09,.02,4.63,.02Zm-189.65-1.93h0c-1.46,0-2.92-.02-4.38,0-.6,.01-1.21,.05-1.78,.21-.24,.07-.53,.48-.53,.73,0,.26,.28,.6,.53,.76,.27,.17,.66,.21,.99,.21,3.35,.01,6.69,.01,10.04,0,.34,0,.72-.04,1-.2,.26-.15,.54-.49,.55-.76,0-.25-.29-.66-.53-.72-.57-.16-1.18-.21-1.78-.23-1.37-.03-2.75,0-4.12,0Zm23.61,1.95s0-.01,0-.02c1.64,0,3.27,.02,4.91-.01,.68-.01,1.42-.04,1.67-.89,.17-.56-.47-.99-1.75-1-3.18-.04-6.37-.02-9.56,0-.43,0-.88,.03-1.27,.18-.27,.1-.58,.41-.64,.67-.12,.5,.28,.81,.72,.9,.59,.12,1.19,.16,1.79,.17,1.38,.02,2.75,0,4.13,0Zm59.41,0s0-.02,0-.02c1.64,0,3.28,.03,4.91-.02,.49-.01,1-.19,1.46-.39,.17-.07,.32-.42,.31-.63-.01-.21-.21-.54-.38-.58-.66-.16-1.34-.3-2.02-.3-2.76-.03-5.52-.02-8.27,0-.43,0-.86,.02-1.29,.07-.95,.11-1.41,.44-1.29,.94,.18,.74,.8,.83,1.4,.89,.51,.05,1.03,.05,1.55,.06,1.21,0,2.41,0,3.62,0Zm23.57-1.96s0,0,0,.01c-1.54,0-3.09-.02-4.63,.01-.5,.01-1.02,.13-1.5,.29-.17,.06-.34,.39-.34,.6,0,.22,.14,.56,.31,.63,.46,.19,.97,.37,1.46,.37,3.17,.03,6.35,.02,9.52,.01,.34,0,.69-.04,1.02-.12,.44-.1,.8-.33,.85-.82,.05-.55-.34-.75-.78-.83-.5-.09-1.02-.14-1.53-.15-1.46-.02-2.92,0-4.38,0Zm44.95,1.95s0-.01,0-.02c1.55,0,3.09,.02,4.64,0,.68-.01,1.43,0,1.69-.84,.17-.54-.53-1.02-1.75-1.04-3.18-.04-6.35-.02-9.53,0-.42,0-.88,.05-1.25,.22-.25,.11-.54,.49-.53,.73,.02,.26,.32,.65,.58,.72,.57,.17,1.18,.22,1.77,.23,1.46,.03,2.92,.01,4.38,.01Zm-112.95-1.96s0,0,0,0c-1.47,0-2.94-.02-4.4,.01-.6,.01-1.21,.09-1.77,.27-.24,.08-.44,.48-.51,.77-.03,.16,.22,.5,.41,.56,.48,.16,1,.3,1.5,.3,3.02,.03,6.05,.02,9.07,0,.51,0,1.04-.08,1.51-.28,.25-.1,.52-.52,.5-.78-.02-.24-.36-.6-.62-.67-.58-.15-1.19-.19-1.79-.2-1.29-.03-2.59,0-3.89,0Zm-53.71,1.95s0,0,0,0c1.55,0,3.1,.03,4.65-.01,.5-.01,1.01-.15,1.48-.33,.18-.07,.34-.4,.35-.61,0-.21-.17-.57-.33-.62-.65-.18-1.33-.34-2.01-.35-2.76-.04-5.51-.03-8.27,0-.6,0-1.21,.07-1.78,.23-.25,.07-.57,.47-.56,.71,0,.26,.3,.65,.56,.74,.47,.18,1,.24,1.51,.25,1.46,.03,2.93,.01,4.39,.01Zm220.07-1.92s0-.07,0-.1c-1.88,.07-3.77,.11-5.65,.21-.66,.04-1.09,.51-1.01,.94,.09,.5,.47,.7,.91,.76,.59,.08,1.2,.11,1.79,.12,1.29,.02,2.57,.01,3.86,0,1.63,0,3.26,.01,4.89-.05,.48-.02,.98-.25,1.43-.46,.34-.16,.26-.98-.09-1.08-.49-.15-.99-.31-1.49-.32-1.54-.04-3.09-.01-4.63-.01Zm-136.9-.02c-1.46,0-2.92-.03-4.37,.01-.59,.02-1.19,.13-1.76,.29-.18,.05-.38,.36-.4,.56-.02,.21,.12,.58,.28,.64,.55,.2,1.13,.4,1.71,.41,3,.04,6,.03,9,.01,.51,0,1.04-.06,1.51-.24,.24-.09,.52-.5,.5-.75-.02-.26-.33-.63-.59-.7-.57-.16-1.18-.22-1.77-.23-1.37-.03-2.74,0-4.11-.01Zm-56.42,2.2c.88-.05,1.91-.07,2.93-.19,.26-.03,.59-.37,.69-.63,.16-.44-.08-.85-.5-1.06-.3-.14-.65-.22-.99-.25-.68-.06-1.37-.1-2.06-.08-.94,.03-1.89,.08-2.82,.2-.53,.06-.94,.64-.87,1.11,.07,.5,.45,.73,.9,.77,.86,.07,1.72,.09,2.73,.13Zm166.28,0c1.06-.05,2-.06,2.94-.14,.46-.04,.81-.32,.83-.82,.02-.46-.19-.9-.65-1-1.95-.41-3.92-.4-5.87,0-.29,.06-.62,.57-.7,.93-.12,.48,.28,.81,.74,.85,.94,.1,1.88,.13,2.7,.18Zm-82.88,.02c.87-.08,1.89-.14,2.9-.29,.49-.07,.66-.9,.29-1.27-.17-.18-.37-.4-.59-.44-1.86-.36-3.74-.36-5.6,0-.45,.09-.72,.45-.73,.93,0,.5,.3,.81,.76,.85,.93,.1,1.87,.13,2.96,.21Zm45.48-12.95c-.55-.33-.81-.61-1.07-.61-2.07-.03-4.13-.01-6.2,0-.17,0-.38,.03-.49,.13-.23,.22-.51,.48-.58,.77-.12,.5,.25,.82,.69,.91,.5,.1,1.04,.19,1.53,.1,1.92-.36,3.83-.8,6.11-1.29Zm-90.57,.05c1.55,.39,3.1,.81,4.66,1.16,.49,.11,1.02,.07,1.52,.08,.17,0,.34-.03,.5-.08,.43-.11,.82-.31,.84-.81,.02-.49-.31-.82-.76-.88-2.27-.31-4.54-.27-6.77,.52Zm-76-10.69c-.49,1.66-.6,2.77-.25,3.97,1.14-.81,1.2-1.4,.25-3.97Zm241.57,4.21c.77-1.95,.7-2.58-.26-3.93-.13,1.25-.36,2.39,.26,3.93Zm-81.87-852.73c-.44-.4-.63-.71-.89-.78-.39-.11-.68,.18-.66,.57,0,.2,.25,.53,.41,.54,.27,.02,.57-.15,1.13-.33Zm-84.28,853.76c-.23,.56-.37,.79-.41,1.03-.07,.4,.17,.66,.54,.65,.18,0,.52-.28,.51-.41-.02-.26-.23-.51-.63-1.27Zm7.61-853.25c.24-.31,.54-.55,.49-.65-.12-.25-.37-.44-.58-.65-.2,.21-.41,.43-.61,.64,.21,.2,.42,.4,.69,.66Zm85.81,17.38c.05,.01,.11,.02,.16,.03v-1.17c-.05,0-.11,0-.16,0v1.15Zm-1.86,836.99c-.34-.26-.6-.55-.68-.5-.24,.13-.44,.37-.57,.62-.03,.05,.34,.45,.46,.42,.25-.06,.46-.29,.78-.53ZM94.67,272.01c-.12-.11-.22-.27-.35-.3-.1-.02-.24,.13-.36,.2,.11,.1,.22,.26,.34,.29,.1,.02,.24-.12,.36-.19Zm73.25,1143.32c-.3-.27-.49-.53-.74-.62-.11-.04-.44,.24-.5,.42-.11,.37,.11,.67,.5,.66,.19,0,.38-.23,.74-.47Zm-2.83-1143.41c-.08-.1-.15-.22-.25-.3-.03-.02-.2,.05-.2,.08,0,.13,.03,.26,.05,.39,.13-.06,.27-.12,.4-.18Zm-81.46,306.94c-.14,.04-.28,.06-.28,.09,0,.24,.02,.47,.04,.71,.12-.04,.33-.07,.33-.11,0-.23-.05-.45-.09-.69Zm8.61,836.39c-.26-.2-.45-.45-.62-.43-.18,.01-.33,.28-.5,.43,.16,.15,.32,.42,.49,.43,.17,.01,.36-.23,.62-.43Zm-8.27-2.61c-.13-.05-.26-.09-.38-.14-.01,.13-.04,.26-.03,.39,0,.03,.17,.09,.2,.07,.09-.09,.15-.21,.21-.32Zm83.2-.05c-.12-.03-.24-.08-.36-.08-.03,0-.12,.15-.1,.17,.09,.1,.2,.18,.3,.26,.05-.12,.11-.23,.16-.35Zm7.81-.11c-.07,.12-.13,.23-.2,.35,.07,.03,.19,.11,.21,.09,.08-.1,.15-.23,.21-.34-.07-.03-.14-.07-.22-.1Zm4.42-1313.94l.1,.14,.04-.18-.14,.04ZM84.12,1417.24l-.14,.13c.09,0,.19,0,.28,0-.05-.04-.09-.09-.14-.13Zm7.9-4.52c-.03-.06-.06-.12-.09-.18-.07,.08-.14,.16-.21,.24,.06,.03,.12,.1,.17,.09,.06-.02,.09-.1,.14-.15Z" fill="#fff"/><path d="M248.16,1413.43c.19,.72,.45,1.28,.46,1.85,.04,2.94,.07,5.88-.02,8.82-.04,1.47-.46,2.9-1.14,4.23-.3,.59-.75,.95-1.4,1-.77,.06-1.55,.13-2.33,.13-20.73,0-41.47,0-62.2,0-.86,0-1.73-.04-2.58-.18-.99-.17-1.23-.69-1.14-2.16,.88-.45,1.85-.25,2.78-.28,1.29-.04,2.59-.03,3.89-.04,.74,0,1.34-.32,1.79-.89,.79-.98,.84-3.95,.1-4.95-.45-.61-1.11-.84-1.8-.89-1.12-.08-2.24-.08-3.36-.11-1.12-.03-2.25-.02-3.36-.11-.82-.07-1.25-.5-1.3-1.34-.07-1.29-.07-2.59,0-3.88,.05-.85,.46-1.19,1.34-1.28,.6-.06,1.21-.07,1.81-.07,7.86,0,15.72,0,23.59,0,.35,0,.69,.03,1.04,0,1.29-.1,2.17,.39,2.54,1.69,.09,.33,.23,.65,.38,.97,.81,1.72,2.03,2.25,3.79,1.66,.16-.05,.31-.14,.47-.23,.75-.42,1.43-.28,2.21,.04,2.22,.89,3.46,.47,4.29-1.77,.7-1.88,1.81-2.41,3.7-2.39,7.95,.08,15.9,.03,23.84,.04,.85,0,1.69,.1,2.62,.16Z"/><path d="M81.84,1413.4c.66,2.02,.55,3.73,.28,5.43-.09,.55-.49,.94-1.06,.99-.94,.08-1.89,.1-2.84,.13-1.38,.05-2.77,0-4.14,.14-1.41,.15-1.97,.79-2.1,2.19-.07,.77-.07,1.56,.02,2.33,.17,1.45,.88,2.11,2.39,2.19,1.29,.07,2.59,.01,3.88,.04,.93,.02,1.89-.14,2.75,.33-.14,1.63-.33,2-1.35,2.14-.94,.13-1.89,.15-2.84,.16-5.09,.01-10.19,0-15.28,0-15.02,0-30.04,0-45.06,0-1.12,0-2.24-.05-3.36-.08-.97-.03-1.7-.48-1.97-1.4-.4-1.31-.88-2.66-.95-4.01-.15-2.84-.06-5.7-.06-8.55,0-.26,.03-.52,.07-.77,.14-.88,.46-1.23,1.32-1.33,.6-.07,1.21-.07,1.81-.07,7.86,0,15.71,0,23.57,0,.85,0,1.71,.07,2.38,.1,.99,.75,1.17,1.73,1.61,2.56,.98,1.86,2.1,2.35,4.01,1.5,.98-.44,1.74-.36,2.69,.04,1.93,.8,3.17,.34,3.93-1.62,1.12-2.89,1.55-2.57,4.04-2.58,7.77-.02,15.54-.01,23.31,0,.94,0,1.87,.08,2.96,.13Z"/><path d="M135.89,1413.6c2.4-.47,13.88-.61,26.79-.33,.76,.02,1.51,.13,2.13,.18,.76,.91,.58,1.81,.59,2.65,.02,1.12,.02,2.25-.06,3.37-.08,1.09-1.05,1.65-2.05,1.18-.53-.25-1.01-.65-1.46-1.05-1.34-1.22-2.91-.98-4.4-.54-.55,.16-1.1,.87-1.35,1.46-.83,2-.73,4.06,.07,6.06,.31,.78,.92,1.24,1.77,1.34,1.68,.18,3.3,.2,4.43-1.4,.36-.5,.81-.88,1.49-.92,.56-.03,1.05,.39,1.01,.92-.14,1.78-1.02,2.74-2.7,2.88-.86,.07-1.73,.06-2.59,.06-20.21,0-40.43,0-60.64,0-.69,0-1.38,0-2.07-.04-1.78-.12-2.24-.47-2.78-2.16-.12-.39-.08-.83-.11-1.16,.62-.62,1.19-.57,1.75-.22,.29,.18,.55,.43,.75,.71,.94,1.26,2.24,1.49,3.7,1.37,1.49-.11,2.28-.63,2.64-2.02,.42-1.61,.45-3.26,.07-4.88-.35-1.46-1.28-2.18-2.76-2.27-1.32-.08-2.61-.08-3.56,1.09-.16,.2-.38,.35-.6,.49-1.32,.84-2.43,.33-2.46-1.24-.04-1.79-.28-3.61,.22-5.29,.83-.74,1.73-.56,2.57-.57,3.28-.02,6.57-.01,9.85-.01,4.49,0,8.98,0,13.48,0,.69,0,1.38,.02,2.07,.03,.87,.02,1.45,.45,1.77,1.26,.22,.56,.45,1.13,.75,1.65,.87,1.52,2.12,2.04,3.7,1.35,1.03-.45,1.86-.54,2.93-.07,1.69,.75,3,.2,3.88-1.43,.45-.82,.82-1.69,1.18-2.45Z"/><path d="M178.53,1425.66c-1.55,0-3.11,0-4.66,0-.96,0-1.89-.06-2.76-.55-.85-.47-1.79-.6-2.75-.58-1.21,.02-2.42,.05-3.62,0-1.3-.06-2.38,.29-3.16,1.38-.8,1.11-1.93,1.36-3.21,1.19-.64-.09-1.17-.39-1.43-.98-.74-1.65-.78-3.34-.16-5.04,.26-.71,.81-1.1,1.55-1.21,1.24-.17,2.43-.12,3.36,.87,.78,.83,1.75,1.04,2.82,1.03,1.38-.01,2.76,.02,4.14-.02,.6-.02,1.25-.03,1.78-.26,1.81-.78,3.7-.77,5.6-.76,2.42,.02,4.83,.01,7.25,.02,2.38,.01,2.95,.98,2.68,3.34-.11,1.02-.63,1.43-1.74,1.54-.17,.02-.34,.02-.52,.02-1.73,0-3.45,0-5.18,0h0Z"/><path d="M80.27,1425.63c-1.9,0-3.8,.05-5.69-.02-1.24-.04-1.69-.54-1.78-1.76-.04-.51-.02-1.04,.06-1.55,.11-.75,.58-1.26,1.33-1.4,.59-.11,1.2-.16,1.8-.16,2.85-.02,5.69-.06,8.54,.02,1.1,.03,2.22,.26,3.28,.57,2.55,.74,5.13,.44,7.7,.28,.53-.03,1.1-.49,1.52-.89,.99-.92,2.14-1.04,3.38-.88,1.01,.13,1.57,.61,1.7,1.66,.13,1.11,.12,2.24,.07,3.35-.04,.88-.29,1.8-1.24,2.09-1.09,.33-2.22,.39-3.17-.48-.32-.29-.62-.61-.89-.94-.6-.71-1.37-1-2.29-.99-1.55,.02-3.1,0-4.66,.02-.43,0-.92-.01-1.27,.19-1.99,1.15-4.17,.9-6.31,.92-.69,0-1.38,0-2.07,0,0-.01,0-.02,0-.03Z"/><path d="M156.16,1432.17c-1.63,0-3.26,.03-4.89-.02-.49-.01-.99-.21-1.45-.39-.32-.13-.29-.98,.02-1.12,.3-.14,.64-.31,.96-.31,3.6-.02,7.2-.02,10.8,0,.5,0,1.05,.11,1.17,.77,.09,.54-.37,1-1.2,1.02-1.8,.05-3.6,.01-5.4,.01,0,.01,0,.03,0,.04Z"/><path d="M200.93,1430.3c1.72,0,3.44-.03,5.15,.01,.88,.03,1.38,.47,1.26,.95-.16,.59-.63,.76-1.16,.85-.17,.03-.34,.05-.51,.05-3.27,0-6.53,.02-9.8,0-.49,0-1-.2-1.45-.4-.17-.07-.3-.43-.29-.64,.02-.21,.22-.52,.39-.57,.57-.15,1.17-.27,1.76-.28,1.55-.04,3.09-.01,4.64-.01,0,.02,0,.04,0,.06Z"/><path d="M224.19,1432.16c-1.54,0-3.09,.03-4.63-.02-.49-.02-1-.2-1.46-.39-.17-.07-.32-.42-.31-.63,.01-.2,.21-.51,.39-.57,.48-.16,.99-.29,1.5-.29,3.09-.03,6.17-.02,9.26-.02,.26,0,.51,.03,.77,.06,.9,.11,1.39,.47,1.28,.94-.18,.74-.81,.86-1.4,.87-1.8,.04-3.6,.01-5.4,.01,0,0,0,.02,0,.03Z"/><path d="M34.53,1430.24c1.37,0,2.75-.02,4.12,0,.6,.01,1.21,.06,1.78,.23,.24,.07,.54,.48,.53,.72,0,.26-.29,.6-.55,.76-.28,.16-.66,.2-1,.2-3.35,.01-6.69,.02-10.04,0-.33,0-.72-.05-.99-.21-.25-.15-.53-.49-.53-.76,0-.25,.29-.66,.53-.73,.57-.16,1.18-.2,1.78-.21,1.46-.03,2.92,0,4.38,0h0Z"/><path d="M58.14,1432.19c-1.38,0-2.76,.02-4.13,0-.6-.01-1.2-.06-1.79-.17-.44-.09-.83-.4-.72-.9,.06-.27,.37-.57,.64-.67,.39-.15,.84-.18,1.27-.18,3.19-.01,6.37-.03,9.56,0,1.28,.02,1.92,.44,1.75,1-.25,.85-.99,.87-1.67,.89-1.64,.03-3.27,.01-4.91,.01,0,0,0,.01,0,.02Z"/><path d="M117.55,1432.19c-1.21,0-2.41,0-3.62,0-.52,0-1.04,0-1.55-.06-.6-.06-1.22-.15-1.4-.89-.12-.49,.34-.83,1.29-.94,.43-.05,.86-.07,1.29-.07,2.76,0,5.52-.02,8.27,0,.68,0,1.36,.15,2.02,.3,.17,.04,.37,.37,.38,.58,.01,.21-.14,.56-.31,.63-.46,.2-.97,.38-1.46,.39-1.64,.05-3.27,.02-4.91,.02,0,0,0,.02,0,.02Z"/><path d="M141.13,1430.24c1.46,0,2.92-.01,4.38,0,.51,0,1.03,.06,1.53,.15,.44,.08,.83,.29,.78,.83-.05,.5-.41,.73-.85,.82-.33,.07-.68,.12-1.02,.12-3.17,0-6.35,.02-9.52-.01-.49,0-1-.18-1.46-.37-.17-.07-.31-.42-.31-.63,0-.21,.17-.54,.34-.6,.48-.16,.99-.28,1.5-.29,1.54-.03,3.09-.01,4.63-.01,0,0,0,0,0-.01Z"/><path d="M186.08,1432.19c-1.46,0-2.92,.02-4.38-.01-.6-.01-1.21-.07-1.77-.23-.26-.08-.56-.46-.58-.72-.02-.24,.28-.62,.53-.73,.38-.17,.83-.22,1.25-.22,3.18-.02,6.35-.03,9.53,0,1.22,.02,1.92,.5,1.75,1.04-.27,.84-1.02,.83-1.69,.84-1.55,.03-3.09,0-4.64,0,0,0,0,.01,0,.02Z"/><path d="M73.14,1430.23c1.3,0,2.59-.02,3.89,0,.6,.01,1.22,.05,1.79,.2,.26,.07,.61,.42,.62,.67,.02,.26-.25,.68-.5,.78-.46,.19-1,.27-1.51,.28-3.02,.02-6.05,.02-9.07,0-.5,0-1.02-.14-1.5-.3-.19-.07-.45-.41-.41-.56,.06-.29,.27-.7,.51-.77,.56-.18,1.18-.26,1.77-.27,1.47-.04,2.94-.01,4.4-.01,0,0,0,0,0,0Z"/><path d="M19.43,1432.18c-1.46,0-2.93,.02-4.39-.01-.51-.01-1.04-.07-1.51-.25-.26-.1-.55-.48-.56-.74,0-.24,.31-.64,.56-.71,.57-.16,1.19-.22,1.78-.23,2.76-.02,5.51-.03,8.27,0,.67,0,1.35,.18,2.01,.35,.16,.04,.33,.4,.33,.62,0,.21-.17,.54-.35,.61-.47,.18-.98,.31-1.48,.33-1.55,.04-3.1,.01-4.65,.01,0,0,0,0,0,0Z"/><path d="M239.5,1430.26c1.54,0,3.09-.03,4.63,.01,.5,.01,1,.17,1.49,.32,.35,.11,.43,.93,.09,1.08-.45,.21-.94,.44-1.43,.46-1.63,.07-3.26,.05-4.89,.05-1.29,0-2.57,.01-3.86,0-.6,0-1.2-.04-1.79-.12-.44-.06-.82-.26-.91-.76-.08-.43,.35-.9,1.01-.94,1.88-.1,3.77-.15,5.65-.21,0,.03,0,.07,0,.1Z"/><path d="M102.6,1430.24c1.37,0,2.74-.02,4.11,.01,.6,.01,1.21,.07,1.77,.23,.26,.07,.57,.45,.59,.7,.02,.25-.26,.66-.5,.75-.47,.17-1,.23-1.51,.24-3,.02-6,.03-9-.01-.57,0-1.16-.21-1.71-.41-.16-.06-.3-.43-.28-.64,.02-.21,.22-.52,.4-.56,.57-.15,1.17-.27,1.76-.29,1.46-.04,2.91-.01,4.37-.01Z"/><path d="M46.18,1432.45c-1.01-.05-1.87-.06-2.73-.13-.45-.04-.83-.27-.9-.77-.07-.48,.34-1.05,.87-1.11,.94-.11,1.88-.17,2.82-.2,.69-.02,1.38,.02,2.06,.08,.34,.03,.69,.11,.99,.25,.42,.2,.66,.61,.5,1.06-.1,.27-.43,.6-.69,.63-1.02,.13-2.05,.14-2.93,.19Z"/><path d="M212.46,1432.45c-.82-.05-1.77-.08-2.7-.18-.46-.05-.86-.37-.74-.85,.09-.36,.41-.87,.7-.93,1.95-.4,3.92-.41,5.87,0,.46,.1,.66,.54,.65,1-.02,.5-.37,.78-.83,.82-.94,.08-1.88,.09-2.94,.14Z"/><path d="M129.58,1432.47c-1.09-.07-2.03-.11-2.96-.21-.47-.05-.77-.36-.76-.85,0-.48,.28-.84,.73-.93,1.86-.37,3.73-.36,5.6,0,.22,.04,.42,.27,.59,.44,.36,.37,.2,1.2-.29,1.27-1.01,.15-2.03,.21-2.9,.29Z"/><path d="M175.06,1419.52c-2.27,.49-4.18,.93-6.11,1.29-.49,.09-1.03,0-1.53-.1-.45-.09-.81-.41-.69-.91,.07-.29,.35-.54,.58-.77,.11-.1,.32-.13,.49-.13,2.07-.01,4.13-.03,6.2,0,.26,0,.51,.28,1.07,.61Z"/><path d="M84.49,1419.57c2.24-.79,4.5-.83,6.77-.52,.45,.06,.78,.38,.76,.88-.02,.5-.41,.7-.84,.81-.16,.04-.34,.08-.5,.08-.51-.01-1.04,.03-1.52-.08-1.56-.36-3.11-.77-4.66-1.16Z"/><path d="M8.49,1408.88c.95,2.58,.89,3.17-.25,3.97-.35-1.2-.23-2.32,.25-3.97Z"/><path d="M250.06,1413.08c-.62-1.54-.4-2.68-.26-3.93,.97,1.34,1.03,1.98,.26,3.93Z"/><path d="M168.19,560.36c-.57,.18-.86,.36-1.13,.33-.16-.01-.41-.34-.41-.54-.02-.39,.27-.68,.66-.57,.26,.07,.45,.38,.89,.78Z" fill="#fff"/><path d="M83.91,1414.12c.4,.76,.61,1.01,.63,1.27,.01,.13-.33,.41-.51,.41-.36,0-.61-.26-.54-.65,.04-.24,.18-.46,.41-1.03Z"/><path d="M91.53,560.87c-.28-.26-.49-.46-.69-.66,.2-.21,.41-.43,.61-.64,.2,.21,.46,.4,.58,.65,.04,.09-.25,.34-.49,.65Z" fill="#fff"/><path d="M177.34,578.25v-1.15c.05,0,.11,0,.16,0v1.17c-.05,0-.11-.02-.16-.03Z" fill="#fff"/><path d="M175.48,1415.24c-.33,.24-.54,.48-.78,.53-.12,.03-.49-.37-.46-.42,.13-.24,.33-.49,.57-.62,.08-.04,.34,.25,.68,.5Z"/><path d="M94.67,272.02c-.12,.07-.26,.21-.36,.19-.13-.03-.23-.19-.34-.29,.12-.07,.26-.22,.36-.2,.13,.03,.24,.19,.35,.3Z"/><path d="M167.92,1415.33c-.36,.24-.55,.47-.74,.47-.39,0-.61-.3-.5-.66,.05-.18,.39-.46,.5-.42,.25,.09,.44,.35,.74,.62Z"/><path d="M165.09,271.93c-.13,.06-.27,.12-.4,.18-.02-.13-.06-.26-.05-.39,0-.03,.17-.11,.2-.08,.1,.08,.17,.19,.25,.3Z"/><path d="M83.63,578.87c.04,.24,.09,.46,.09,.69,0,.03-.22,.07-.33,.11-.02-.24-.04-.47-.04-.71,0-.02,.14-.04,.28-.09Z" fill="#fff"/><path d="M92.24,1415.26c-.27,.2-.45,.44-.62,.43-.17-.01-.33-.28-.49-.43,.17-.15,.32-.42,.5-.43,.17-.01,.35,.23,.62,.43Z"/><path d="M83.97,1412.65c-.07,.11-.13,.23-.21,.32-.02,.02-.19-.04-.2-.07-.01-.13,.01-.26,.03-.39,.13,.05,.26,.09,.38,.14Z"/><path d="M167.17,1412.6c-.05,.12-.11,.24-.16,.35-.1-.09-.21-.17-.3-.26-.01-.02,.07-.17,.1-.17,.12,0,.24,.05,.36,.08Z"/><path d="M174.99,1412.5c.07,.03,.14,.07,.22,.1-.07,.12-.13,.24-.21,.34-.01,.02-.13-.06-.21-.09,.07-.12,.13-.23,.2-.35Z"/><polygon points="179.41 98.55 179.55 98.51 179.51 98.69 179.41 98.55"/><path d="M84.12,1417.24s.09,.09,.14,.13c-.09,0-.19,0-.28,0,.05-.04,.09-.09,.14-.13Z"/><path d="M92.03,1412.72c-.04,.05-.08,.13-.14,.15-.04,.01-.11-.06-.17-.09,.07-.08,.14-.16,.21-.24,.03,.06,.06,.12,.09,.18Z"/></svg>